<svg xmlns="http://www.w3.org/2000/svg"  viewBox="0 0 100 100" width="100px" height="100px" baseProfile="basic"><rect width="42" height="64" x="29" y="20" fill="#f0f5ff" transform="rotate(90 50 52)"/><path fill="#1d5ab5" d="M8,73H7v-1h1V73z M8,71H7v-1h1V71z M8,69H7v-1h1V69z M8,67H7v-1h1V67z M8,65H7v-1h1V65z M8,63H7v-1h1V63z M8,61H7v-1h1V61z M8,59H7v-1h1V59z M8,57H7v-1h1V57z M8,55H7v-1h1V55z M8,53H7v-1h1V53z M8,51H7v-1h1V51z M8,49H7	v-1h1V49z M8,47H7v-1h1V47z M8,45H7v-1h1V45z M8,43H7v-1h1V43z" opacity=".25"/><linearGradient id="ihGJeyhobAc7khnk_KqZTa" x1="-592.277" x2="-563.88" y1="-908" y2="-908" gradientTransform="matrix(1 0 0 -1 592.5 -834.5)" gradientUnits="userSpaceOnUse"><stop offset="0" stop-color="#1d5ab5" stop-opacity="0"/><stop offset="1" stop-color="#1d5ab5"/></linearGradient><rect width="22" height="1" y="73" fill="url(#ihGJeyhobAc7khnk_KqZTa)" opacity=".85"/><linearGradient id="ihGJeyhobAc7khnk_KqZTb" x1="-3972.277" x2="-3943.88" y1="-908" y2="-908" gradientTransform="rotate(180 -1936.25 -417.25)" gradientUnits="userSpaceOnUse"><stop offset="0" stop-color="#1d5ab5" stop-opacity="0"/><stop offset="1" stop-color="#1d5ab5"/></linearGradient><polygon fill="url(#ihGJeyhobAc7khnk_KqZTb)" points="100,73 78,73 78,74 100,74" opacity=".85"/><linearGradient id="ihGJeyhobAc7khnk_KqZTc" x1="-592.277" x2="-563.88" y1="-865" y2="-865" gradientTransform="matrix(1 0 0 -1 592.5 -834.5)" gradientUnits="userSpaceOnUse"><stop offset="0" stop-color="#1d5ab5" stop-opacity="0"/><stop offset="1" stop-color="#1d5ab5"/></linearGradient><rect width="22" height="1" y="30" fill="url(#ihGJeyhobAc7khnk_KqZTc)" opacity=".85"/><linearGradient id="ihGJeyhobAc7khnk_KqZTd" x1="-592.277" x2="-563.88" y1="-875" y2="-875" gradientTransform="matrix(1 0 0 -1 592.5 -834.5)" gradientUnits="userSpaceOnUse"><stop offset="0" stop-color="#1d5ab5" stop-opacity="0"/><stop offset="1" stop-color="#1d5ab5"/></linearGradient><rect width="22" height="1" y="40" fill="url(#ihGJeyhobAc7khnk_KqZTd)" opacity=".85"/><linearGradient id="ihGJeyhobAc7khnk_KqZTe" x1="-3972.277" x2="-3943.88" y1="-865" y2="-865" gradientTransform="rotate(180 -1936.25 -417.25)" gradientUnits="userSpaceOnUse"><stop offset="0" stop-color="#1d5ab5" stop-opacity="0"/><stop offset="1" stop-color="#1d5ab5"/></linearGradient><polygon fill="url(#ihGJeyhobAc7khnk_KqZTe)" points="100,30 78,30 78,31 100,31" opacity=".85"/><linearGradient id="ihGJeyhobAc7khnk_KqZTf" x1="-3970.277" x2="-3941.88" y1="-875" y2="-875" gradientTransform="rotate(180 -1936.25 -417.25)" gradientUnits="userSpaceOnUse"><stop offset="0" stop-color="#1d5ab5" stop-opacity="0"/><stop offset="1" stop-color="#1d5ab5"/></linearGradient><polygon fill="url(#ihGJeyhobAc7khnk_KqZTf)" points="98,40 76,40 76,41 98,41" opacity=".85"/><linearGradient id="ihGJeyhobAc7khnk_KqZTg" x1="-2503.248" x2="-2470.978" y1="-2773" y2="-2773" gradientTransform="rotate(90 -2602 -88.5)" gradientUnits="userSpaceOnUse"><stop offset="0" stop-color="#1d5ab5" stop-opacity="0"/><stop offset="1" stop-color="#1d5ab5"/></linearGradient><polygon fill="url(#ihGJeyhobAc7khnk_KqZTg)" points="82,9.999 82,34.999 83,34.999 83,9.999" opacity=".85"/><linearGradient id="ihGJeyhobAc7khnk_KqZTh" x1="-2503.248" x2="-2470.978" y1="-2708" y2="-2708" gradientTransform="rotate(90 -2602 -88.5)" gradientUnits="userSpaceOnUse"><stop offset="0" stop-color="#1d5ab5" stop-opacity="0"/><stop offset="1" stop-color="#1d5ab5"/></linearGradient><polygon fill="url(#ihGJeyhobAc7khnk_KqZTh)" points="17,9.999 17,34.999 18,34.999 18,9.999" opacity=".85"/><linearGradient id="ihGJeyhobAc7khnk_KqZTi" x1="-2064.277" x2="-2035.88" y1="-2773" y2="-2773" gradientTransform="matrix(0 -1 -1 0 -2690.5 -1973.5)" gradientUnits="userSpaceOnUse"><stop offset="0" stop-color="#1d5ab5" stop-opacity="0"/><stop offset="1" stop-color="#1d5ab5"/></linearGradient><polygon fill="url(#ihGJeyhobAc7khnk_KqZTi)" points="82,91 82,69 83,69 83,91" opacity=".85"/><linearGradient id="ihGJeyhobAc7khnk_KqZTj" x1="-2064.277" x2="-2035.88" y1="-2708" y2="-2708" gradientTransform="matrix(0 -1 -1 0 -2690.5 -1973.5)" gradientUnits="userSpaceOnUse"><stop offset="0" stop-color="#1d5ab5" stop-opacity="0"/><stop offset="1" stop-color="#1d5ab5"/></linearGradient><polygon fill="url(#ihGJeyhobAc7khnk_KqZTj)" points="17,91 17,69 18,69 18,91" opacity=".85"/><path fill="#1d5ab5" d="M77,82h-1v-1h1V82z M75,82h-1v-1h1V82z M73,82h-1v-1h1V82z M71,82h-1v-1h1V82z M69,82	h-1v-1h1V82z M67,82h-1v-1h1V82z M65,82h-1v-1h1V82z M63,82h-1v-1h1V82z M61,82h-1v-1h1V82z M59,82h-1v-1h1V82z M57,82h-1v-1h1V82z M55,82h-1v-1h1V82z M53,82h-1v-1h1V82z M51,82h-1v-1h1V82z M49,82h-1v-1h1V82z M47,82h-1v-1h1V82z M45,82h-1v-1h1V82z M43,82h-1v-1	h1V82z M41,82h-1v-1h1V82z M39,82h-1v-1h1V82z M37,82h-1v-1h1V82z M35,82h-1v-1h1V82z M33,82h-1v-1h1V82z M31,82h-1v-1h1V82z M29,82	h-1v-1h1V82z M27,82h-1v-1h1V82z M25,82h-1v-1h1V82z" opacity=".25"/><path fill="#1d5ab5" d="M82,19h-1v-1h1V19z M80,19h-1v-1h1V19z M78,19h-1v-1h1V19z M76,19h-1v-1h1V19z M74,19	h-1v-1h1V19z M72,19h-1v-1h1V19z M70,19h-1v-1h1V19z M68,19h-1v-1h1V19z M66,19h-1v-1h1V19z M64,19h-1v-1h1V19z M62,19h-1v-1h1V19z M60,19h-1v-1h1V19z M58,19h-1v-1h1V19z M56,19h-1v-1h1V19z M54,19h-1v-1h1V19z M52,19h-1v-1h1V19z M50,19h-1v-1h1V19z M48,19h-1v-1	h1V19z M46,19h-1v-1h1V19z M44,19h-1v-1h1V19z M42,19h-1v-1h1V19z M40,19h-1v-1h1V19z M38,19h-1v-1h1V19z M36,19h-1v-1h1V19z M34,19	h-1v-1h1V19z M32,19h-1v-1h1V19z M30,19h-1v-1h1V19z M28,19h-1v-1h1V19z M26,19h-1v-1h1V19z M24,19h-1v-1h1V19z M22,19h-1v-1h1V19z M20,19h-1v-1h1V19z" opacity=".25"/><path fill="#1d5ab5" d="M59,36h-1v-1h1V36z M57,36h-1v-1h1V36z M55,36h-1v-1h1V36z M53,36h-1v-1h1V36z M51,36	h-1v-1h1V36z M49,36h-1v-1h1V36z M47,36h-1v-1h1V36z M45,36h-1v-1h1V36z M43,36h-1v-1h1V36z" opacity=".25"/><path fill="#1d5ab5" d="M82,28h-1v-1h1V28z M80,28h-1v-1h1V28z M78,28h-1v-1h1V28z M76,28h-1v-1h1V28z M74,28	h-1v-1h1V28z M72,28h-1v-1h1V28z M70,28h-1v-1h1V28z M68,28h-1v-1h1V28z M66,28h-1v-1h1V28z M64,28h-1v-1h1V28z M62,28h-1v-1h1V28z" opacity=".25"/><path fill="#1d5ab5" d="M39,28h-1v-1h1V28z M37,28h-1v-1h1V28z M35,28h-1v-1h1V28z M33,28h-1v-1h1V28z M31,28	h-1v-1h1V28z M29,28h-1v-1h1V28z M27,28h-1v-1h1V28z M25,28h-1v-1h1V28z M23,28h-1v-1h1V28z M21,28h-1v-1h1V28z M19,28h-1v-1h1V28z" opacity=".25"/><rect width="64" height="2" x="18" y="40" fill="#1d5ab5"/><path fill="#1d5ab5" d="M90,68h-1v-1h1V68z M90,66h-1v-1h1V66z M90,64h-1v-1h1V64z M90,62h-1v-1h1V62z M90,60	h-1v-1h1V60z M90,58h-1v-1h1V58z M90,56h-1v-1h1V56z M90,54h-1v-1h1V54z" opacity=".25"/><path fill="#1d5ab5" d="M90,39h-1v-1h1V39z M90,37h-1v-1h1V37z M90,35h-1v-1h1V35z M90,33h-1v-1h1V33z" opacity=".25"/><linearGradient id="ihGJeyhobAc7khnk_KqZTk" x1="-2067.425" x2="-2015.451" y1="-2713" y2="-2713" gradientTransform="matrix(0 -1 -1 0 -2690.5 -1973.5)" gradientUnits="userSpaceOnUse"><stop offset="0" stop-color="#1d5ab5" stop-opacity="0"/><stop offset="1" stop-color="#1d5ab5"/></linearGradient><polygon fill="url(#ihGJeyhobAc7khnk_KqZTk)" points="22,95 22,63 23,63 23,95" opacity=".85"/><linearGradient id="ihGJeyhobAc7khnk_KqZTl" x1="-2067.425" x2="-2015.451" y1="-2768" y2="-2768" gradientTransform="matrix(0 -1 -1 0 -2690.5 -1973.5)" gradientUnits="userSpaceOnUse"><stop offset="0" stop-color="#1d5ab5" stop-opacity="0"/><stop offset="1" stop-color="#1d5ab5"/></linearGradient><polygon fill="url(#ihGJeyhobAc7khnk_KqZTl)" points="77,95 77,63 78,63 78,95" opacity=".85"/><linearGradient id="ihGJeyhobAc7khnk_KqZTm" x1="-2061.559" x2="-2016.082" y1="-2765" y2="-2765" gradientTransform="matrix(-1 0 0 1 -1962.5 2833.5)" gradientUnits="userSpaceOnUse"><stop offset="0" stop-color="#1d5ab5" stop-opacity="0"/><stop offset="1" stop-color="#1d5ab5"/></linearGradient><polygon fill="url(#ihGJeyhobAc7khnk_KqZTm)" points="100,69 72,69 72,68 100,68" opacity=".85"/><linearGradient id="ihGJeyhobAc7khnk_KqZTn" x1="-2061.559" x2="-2016.082" y1="-2782" y2="-2782" gradientTransform="matrix(-1 0 0 1 -1962.5 2833.5)" gradientUnits="userSpaceOnUse"><stop offset="0" stop-color="#1d5ab5" stop-opacity="0"/><stop offset="1" stop-color="#1d5ab5"/></linearGradient><polygon fill="url(#ihGJeyhobAc7khnk_KqZTn)" points="100,52 72,52 72,51 100,51" opacity=".85"/><path fill="#1d5ab5" d="M83,74H17V30h66V74z M19,72h62V32H19V72z"/><polygon fill="#f0f5ff" points="71,46 68,46 67,43 67,38 72,38 72,43"/><path fill="#1d5ab5" d="M71.721,47h-4.441L66,43.162V37h7v6.162L71.721,47z M68.721,45h1.559L71,42.838V39h-3v3.838 L68.721,45z"/><polygon fill="#f0f5ff" points="32,46 29,46 28,43 28,38 33,38 33,43"/><path fill="#1d5ab5" d="M32.721,47h-4.441L27,43.162V37h7v6.162L32.721,47z M29.721,45h1.559L32,42.838V39h-3v3.838 L29.721,45z"/><polygon fill="#1d5ab5" points="60,31 58,31 58,26 42,26 42,31 40,31 40,24 60,24"/><linearGradient id="ihGJeyhobAc7khnk_KqZTo" x1="-338.381" x2="-318.016" y1="-29" y2="-29" gradientTransform="translate(372.5 53.5)" gradientUnits="userSpaceOnUse"><stop offset="0" stop-color="#1d5ab5" stop-opacity="0"/><stop offset="1" stop-color="#1d5ab5"/></linearGradient><rect width="15" height="1" x="34" y="24" fill="url(#ihGJeyhobAc7khnk_KqZTo)" opacity=".85"/><linearGradient id="ihGJeyhobAc7khnk_KqZTp" x1="-338.381" x2="-318.016" y1="-29" y2="-29" gradientTransform="matrix(-1 0 0 1 -272.5 53.5)" gradientUnits="userSpaceOnUse"><stop offset="0" stop-color="#1d5ab5" stop-opacity="0"/><stop offset="1" stop-color="#1d5ab5"/></linearGradient><polygon fill="url(#ihGJeyhobAc7khnk_KqZTp)" points="66,25 51,25 51,24 66,24" opacity=".85"/><linearGradient id="ihGJeyhobAc7khnk_KqZTq" x1="-2133.419" x2="-2120.889" y1="-2713" y2="-2713" gradientTransform="rotate(90 -2412.5 -260)" gradientUnits="userSpaceOnUse"><stop offset="0" stop-color="#1d5ab5" stop-opacity="0"/><stop offset="1" stop-color="#1d5ab5"/></linearGradient><polygon fill="url(#ihGJeyhobAc7khnk_KqZTq)" points="40,19.001 40,32.002 41,32.002 41,19.001" opacity=".85"/><linearGradient id="ihGJeyhobAc7khnk_KqZTr" x1="-2133.419" x2="-2120.889" y1="-2732" y2="-2732" gradientTransform="rotate(90 -2412.5 -260)" gradientUnits="userSpaceOnUse"><stop offset="0" stop-color="#1d5ab5" stop-opacity="0"/><stop offset="1" stop-color="#1d5ab5"/></linearGradient><polygon fill="url(#ihGJeyhobAc7khnk_KqZTr)" points="59,19.001 59,32.002 60,32.002 60,19.001" opacity=".85"/><linearGradient id="ihGJeyhobAc7khnk_KqZTs" x1="-2120.249" x2="-2109.713" y1="-2745.001" y2="-2745.001" gradientTransform="rotate(90 -2412.5 -260)" gradientUnits="userSpaceOnUse"><stop offset="0" stop-color="#1d5ab5" stop-opacity="0"/><stop offset="1" stop-color="#1d5ab5"/></linearGradient><polygon fill="url(#ihGJeyhobAc7khnk_KqZTs)" points="72,32.003 72,40.001 73,40.001 73,32.003" opacity=".85"/><linearGradient id="ihGJeyhobAc7khnk_KqZTt" x1="-2120.249" x2="-2109.713" y1="-2739.001" y2="-2739.001" gradientTransform="rotate(90 -2412.5 -260)" gradientUnits="userSpaceOnUse"><stop offset="0" stop-color="#1d5ab5" stop-opacity="0"/><stop offset="1" stop-color="#1d5ab5"/></linearGradient><polygon fill="url(#ihGJeyhobAc7khnk_KqZTt)" points="66,32.003 66,40.001 67,40.001 67,32.003" opacity=".85"/><linearGradient id="ihGJeyhobAc7khnk_KqZTu" x1="-2120.406" x2="-2109.87" y1="-2706" y2="-2706" gradientTransform="rotate(90 -2412.5 -260)" gradientUnits="userSpaceOnUse"><stop offset="0" stop-color="#1d5ab5" stop-opacity="0"/><stop offset="1" stop-color="#1d5ab5"/></linearGradient><polygon fill="url(#ihGJeyhobAc7khnk_KqZTu)" points="33,31.846 33,39.843 34,39.843 34,31.846" opacity=".85"/><linearGradient id="ihGJeyhobAc7khnk_KqZTv" x1="-2120.406" x2="-2109.87" y1="-2700" y2="-2700" gradientTransform="rotate(90 -2412.5 -260)" gradientUnits="userSpaceOnUse"><stop offset="0" stop-color="#1d5ab5" stop-opacity="0"/><stop offset="1" stop-color="#1d5ab5"/></linearGradient><polygon fill="url(#ihGJeyhobAc7khnk_KqZTv)" points="27,31.846 27,39.843 28,39.843 28,31.846" opacity=".85"/><linearGradient id="ihGJeyhobAc7khnk_KqZTw" x1="-3000.206" x2="-2980.538" y1="-2617" y2="-2617" gradientTransform="matrix(0 -1 -1 0 -2576.5 -2960.5)" gradientUnits="userSpaceOnUse"><stop offset="0" stop-color="#1d5ab5" stop-opacity="0"/><stop offset="1" stop-color="#1d5ab5"/></linearGradient><polygon fill="url(#ihGJeyhobAc7khnk_KqZTw)" points="40,39 40,26 41,26 41,39" opacity=".85"/><linearGradient id="ihGJeyhobAc7khnk_KqZTx" x1="-3000.206" x2="-2980.538" y1="-2636" y2="-2636" gradientTransform="matrix(0 -1 -1 0 -2576.5 -2960.5)" gradientUnits="userSpaceOnUse"><stop offset="0" stop-color="#1d5ab5" stop-opacity="0"/><stop offset="1" stop-color="#1d5ab5"/></linearGradient><polygon fill="url(#ihGJeyhobAc7khnk_KqZTx)" points="59,39 59,26 60,26 60,39" opacity=".85"/><path fill="#1d5ab5" d="M78,69H22V51h56V69z M24,67h52V53H24V67z"/><path fill="#1d5ab5" d="M23.23,52L23,52.23v1.42L24.65,52H23.23z M26.07,52L23,55.07v1.41L27.48,52H26.07z M28.89,52L23,57.89v1.42L30.31,52H28.89z M31.73,52L23,60.73v1.4L33.13,52H31.73z M34.55,52L23,63.55v1.42L35.97,52H34.55z M37.38,52L23,66.38v1.41L38.79,52H37.38z M40.21,52l-16,16h1.42l16-16H40.21z M43.03,52l-16,16h1.42l16-16H43.03z M45.87,52l-16,16	h1.41l16-16H45.87z M48.69,52l-16,16h1.42l16-16H48.69z M51.53,52l-16,16h1.4l16-16H51.53z M54.35,52l-16,16h1.42l16-16H54.35z M57.18,52l-16,16h1.41l16-16H57.18z M60.01,52l-16,16h1.41l16-16H60.01z M62.83,52l-16,16h1.42l16-16H62.83z M65.67,52l-16,16h1.4	l16-16H65.67z M68.49,52l-16,16h1.42l16-16H68.49z M71.32,52l-16,16h1.41l16-16H71.32z M74.15,52l-16,16h1.42l16-16H74.15z M76.97,52l-16,16h1.42L77,53.39V52H76.97z M63.81,68h1.41L77,56.22v-1.41L63.81,68z M66.63,68h1.42L77,59.05v-1.42L66.63,68z M69.47,68h1.4L77,61.87v-1.4L69.47,68z M72.29,68h1.42L77,64.71v-1.42L72.29,68z M75.12,68h1.41L77,67.53v-1.41L75.12,68z" opacity=".3"/><rect width="52" height="1" x="24" y="62" fill="#769ed6"/><rect width="52" height="1" x="24" y="57" fill="#769ed6"/><linearGradient id="ihGJeyhobAc7khnk_KqZTy" x1="-2063.186" x2="-2052.006" y1="-2764.995" y2="-2764.995" gradientTransform="matrix(2.1786 0 0 1 4504.3 2833.523)" gradientUnits="userSpaceOnUse"><stop offset="0" stop-color="#1d5ab5" stop-opacity="0"/><stop offset="1" stop-color="#1d5ab5"/></linearGradient><rect width="14.997" height="1" x="9.004" y="68.028" fill="url(#ihGJeyhobAc7khnk_KqZTy)" opacity=".85"/><linearGradient id="ihGJeyhobAc7khnk_KqZTz" x1="-2063.186" x2="-2052.006" y1="-2781.995" y2="-2781.995" gradientTransform="matrix(2.1786 0 0 1 4504.3 2833.523)" gradientUnits="userSpaceOnUse"><stop offset="0" stop-color="#1d5ab5" stop-opacity="0"/><stop offset="1" stop-color="#1d5ab5"/></linearGradient><rect width="14.997" height="1" x="9.004" y="51.028" fill="url(#ihGJeyhobAc7khnk_KqZTz)" opacity=".85"/><linearGradient id="ihGJeyhobAc7khnk_KqZTA" x1="-2060.052" x2="-2052.596" y1="-2784.008" y2="-2784.008" gradientTransform="matrix(0 2.1786 -1 0 -2761.523 4531.3)" gradientUnits="userSpaceOnUse"><stop offset="0" stop-color="#1d5ab5" stop-opacity="0"/><stop offset="1" stop-color="#1d5ab5"/></linearGradient><polygon fill="url(#ihGJeyhobAc7khnk_KqZTA)" points="21.972,43 21.972,53.001 23,53.001 23,43" opacity=".85"/><linearGradient id="ihGJeyhobAc7khnk_KqZTB" x1="-2060.052" x2="-2052.596" y1="-2839.008" y2="-2839.008" gradientTransform="matrix(0 2.1786 -1 0 -2761.523 4531.3)" gradientUnits="userSpaceOnUse"><stop offset="0" stop-color="#1d5ab5" stop-opacity="0"/><stop offset="1" stop-color="#1d5ab5"/></linearGradient><polygon fill="url(#ihGJeyhobAc7khnk_KqZTB)" points="76.972,43 76.972,53.001 78,53.001 78,43" opacity=".85"/></svg>