<svg xmlns="http://www.w3.org/2000/svg"  viewBox="0 0 100 100" width="100px" height="100px" baseProfile="basic"><path fill="#1d5ab5" d="M10,80H9v-1h1V80z M10,78H9v-1h1V78z M10,76H9v-1h1V76z M10,74H9v-1h1V74z M10,72H9v-1	h1V72z M10,70H9v-1h1V70z M10,68H9v-1h1V68z M10,66H9v-1h1V66z M10,64H9v-1h1V64z M10,62H9v-1h1V62z M10,60H9v-1h1V60z M10,58H9v-1	h1V58z M10,56H9v-1h1V56z M10,54H9v-1h1V54z M10,52H9v-1h1V52z M10,50H9v-1h1V50z M10,48H9v-1h1V48z M10,46H9v-1h1V46z M10,44H9v-1	h1V44z M10,42H9v-1h1V42z M10,40H9v-1h1V40z M10,38H9v-1h1V38z M10,36H9v-1h1V36z M10,34H9v-1h1V34z M10,32H9v-1h1V32z M10,30H9v-1	h1V30z M10,28H9v-1h1V28z M10,26H9v-1h1V26z M10,24H9v-1h1V24z M10,22H9v-1h1V22z" opacity=".25"/><path fill="#1d5ab5" d="M79,10h-1V9h1V10z M77,10h-1V9h1V10z M75,10h-1V9h1V10z M73,10h-1V9h1V10z M71,10h-1V9	h1V10z M69,10h-1V9h1V10z M67,10h-1V9h1V10z M65,10h-1V9h1V10z M63,10h-1V9h1V10z M61,10h-1V9h1V10z M59,10h-1V9h1V10z M57,10h-1V9	h1V10z M55,10h-1V9h1V10z M53,10h-1V9h1V10z M51,10h-1V9h1V10z M49,10h-1V9h1V10z M47,10h-1V9h1V10z M45,10h-1V9h1V10z M43,10h-1V9	h1V10z M41,10h-1V9h1V10z M39,10h-1V9h1V10z M37,10h-1V9h1V10z M35,10h-1V9h1V10z M33,10h-1V9h1V10z M31,10h-1V9h1V10z M29,10h-1V9	h1V10z M27,10h-1V9h1V10z M25,10h-1V9h1V10z M23,10h-1V9h1V10z M21,10h-1V9h1V10z" opacity=".25"/><linearGradient id="Cjg3raO-L6B7F728ECQW-a" x1="-589.924" x2="-537.72" y1="-194" y2="-194" gradientTransform="matrix(1 0 0 -1 592.5 -173.5)" gradientUnits="userSpaceOnUse"><stop offset="0" stop-color="#1d5ab5" stop-opacity="0"/><stop offset="1" stop-color="#1d5ab5"/></linearGradient><rect width="47" height="1" x="2" y="20" fill="url(#Cjg3raO-L6B7F728ECQW-a)" opacity=".85"/><linearGradient id="Cjg3raO-L6B7F728ECQW-b" x1="-588.924" x2="-536.72" y1="-194" y2="-194" gradientTransform="rotate(180 -246.75 -86.75)" gradientUnits="userSpaceOnUse"><stop offset="0" stop-color="#1d5ab5" stop-opacity="0"/><stop offset="1" stop-color="#1d5ab5"/></linearGradient><polygon fill="url(#Cjg3raO-L6B7F728ECQW-b)" points="96,20 49,20 49,21 96,21" opacity=".85"/><linearGradient id="Cjg3raO-L6B7F728ECQW-c" x1="-589.924" x2="-537.72" y1="-193" y2="-193" gradientTransform="matrix(0 -1 -1 0 -174.5 -492.5)" gradientUnits="userSpaceOnUse"><stop offset="0" stop-color="#1d5ab5" stop-opacity="0"/><stop offset="1" stop-color="#1d5ab5"/></linearGradient><polygon fill="url(#Cjg3raO-L6B7F728ECQW-c)" points="18,98 18,51 19,51 19,98" opacity=".85"/><linearGradient id="Cjg3raO-L6B7F728ECQW-d" x1="-589.924" x2="-537.72" y1="-193" y2="-193" gradientTransform="rotate(90 -384 209.5)" gradientUnits="userSpaceOnUse"><stop offset="0" stop-color="#1d5ab5" stop-opacity="0"/><stop offset="1" stop-color="#1d5ab5"/></linearGradient><polygon fill="url(#Cjg3raO-L6B7F728ECQW-d)" points="18,3 18,50 19,50 19,3" opacity=".85"/><linearGradient id="Cjg3raO-L6B7F728ECQW-e" x1="-589.924" x2="-537.72" y1="-193" y2="-193" gradientTransform="matrix(-1 0 0 1 -493.5 274.5)" gradientUnits="userSpaceOnUse"><stop offset="0" stop-color="#1d5ab5" stop-opacity="0"/><stop offset="1" stop-color="#1d5ab5"/></linearGradient><polygon fill="url(#Cjg3raO-L6B7F728ECQW-e)" points="97,82 50,82 50,81 97,81" opacity=".85"/><linearGradient id="Cjg3raO-L6B7F728ECQW-f" x1="-589.924" x2="-537.72" y1="-193" y2="-193" gradientTransform="translate(592.5 274.5)" gradientUnits="userSpaceOnUse"><stop offset="0" stop-color="#1d5ab5" stop-opacity="0"/><stop offset="1" stop-color="#1d5ab5"/></linearGradient><rect width="47" height="1" x="2" y="81" fill="url(#Cjg3raO-L6B7F728ECQW-f)" opacity=".85"/><linearGradient id="Cjg3raO-L6B7F728ECQW-g" x1="-588.924" x2="-536.72" y1="-194" y2="-194" gradientTransform="matrix(0 1 1 0 273.5 593.5)" gradientUnits="userSpaceOnUse"><stop offset="0" stop-color="#1d5ab5" stop-opacity="0"/><stop offset="1" stop-color="#1d5ab5"/></linearGradient><polygon fill="url(#Cjg3raO-L6B7F728ECQW-g)" points="80,4 80,51 79,51 79,4" opacity=".85"/><linearGradient id="Cjg3raO-L6B7F728ECQW-h" x1="-589.924" x2="-537.72" y1="-194" y2="-194" gradientTransform="rotate(-90 -109.5 -383)" gradientUnits="userSpaceOnUse"><stop offset="0" stop-color="#1d5ab5" stop-opacity="0"/><stop offset="1" stop-color="#1d5ab5"/></linearGradient><polygon fill="url(#Cjg3raO-L6B7F728ECQW-h)" points="80,98 80,51 79,51 79,98" opacity=".85"/><circle cx="49" cy="51" r="30" fill="#f0f5ff"/><path fill="#1d5ab5" d="M49,82c-17.094,0-31-13.906-31-31s13.906-31,31-31s31,13.906,31,31S66.094,82,49,82z M49,22	c-15.99,0-29,13.01-29,29s13.01,29,29,29s29-13.01,29-29S64.99,22,49,22z"/><path fill="#1d5ab5" d="M49,51h-1v-1h1V51z M47,51h-1v-1h1V51z M45,51h-1v-1h1V51z M43,51h-1v-1h1V51z M41,51	h-1v-1h1V51z M39,51h-1v-1h1V51z M37,51h-1v-1h1V51z M35,51h-1v-1h1V51z M33,51h-1v-1h1V51z M31,51h-1v-1h1V51z" opacity=".25"/><path fill="#1d5ab5" d="M68,51h-1v-1h1V51z M66,51h-1v-1h1V51z M64,51h-1v-1h1V51z M62,51h-1v-1h1V51z M60,51	h-1v-1h1V51z M58,51h-1v-1h1V51z M56,51h-1v-1h1V51z M54,51h-1v-1h1V51z M52,51h-1v-1h1V51z" opacity=".25"/><path fill="#1d5ab5" d="M49,69h-1v-1h1V69z M49,67h-1v-1h1V67z M49,65h-1v-1h1V65z M49,63h-1v-1h1V63z M49,61	h-1v-1h1V61z M49,59h-1v-1h1V59z M49,57h-1v-1h1V57z M49,55h-1v-1h1V55z M49,53h-1v-1h1V53z M49,51h-1v-1h1V51z M49,49h-1v-1h1V49z M49,47h-1v-1h1V47z M49,45h-1v-1h1V45z M49,43h-1v-1h1V43z" opacity=".25"/><polygon fill="#1d5ab5" points="56.118,59.71 48,51.407 48,35 50,35 50,50.593 57.548,58.312"/><rect width="2" height="5" x="48" y="70" fill="#1d5ab5"/><rect width="5" height="2" x="35.75" y="68.619" fill="#1d5ab5" transform="rotate(-60.007 38.248 69.617)"/><rect width="5" height="2" x="27.881" y="60.75" fill="#1d5ab5" transform="rotate(-29.991 30.385 61.752)"/><rect width="2" height="5" x="29.381" y="37.75" fill="#1d5ab5" transform="rotate(-60 30.38 40.251)"/><rect width="2" height="5" x="37.25" y="29.881" fill="#1d5ab5" transform="rotate(-30 38.249 32.382)"/><rect width="5" height="2" x="57.25" y="31.381" fill="#1d5ab5" transform="rotate(-60.007 59.748 32.38)"/><rect width="5" height="2" x="65.119" y="39.25" fill="#1d5ab5" transform="rotate(-29.991 67.624 40.25)"/><rect width="2" height="5" x="66.619" y="59.25" fill="#1d5ab5" transform="rotate(-60 67.62 61.752)"/><rect width="2" height="5" x="58.75" y="67.119" fill="#1d5ab5" transform="rotate(-30 59.747 69.621)"/><rect width="5" height="2" x="25" y="50" fill="#1d5ab5"/><rect width="2" height="5" x="48" y="27" fill="#1d5ab5"/><rect width="5" height="2" x="68" y="50" fill="#1d5ab5"/><linearGradient id="Cjg3raO-L6B7F728ECQW-i" x1="-18.32" x2="165.953" y1="-16.32" y2="167.953" gradientUnits="userSpaceOnUse"><stop offset="0" stop-color="#1d5ab5" stop-opacity="0"/><stop offset="1" stop-color="#1d5ab5"/></linearGradient><path fill="url(#Cjg3raO-L6B7F728ECQW-i)" d="M49,76c-13.785,0-25-11.215-25-25s11.215-25,25-25s25,11.215,25,25S62.785,76,49,76z M49,27	c-13.233,0-24,10.767-24,24s10.767,24,24,24s24-10.767,24-24S62.233,27,49,27z"/><linearGradient id="Cjg3raO-L6B7F728ECQW-j" x1="30.612" x2="84.291" y1="58.784" y2="-5.188" gradientUnits="userSpaceOnUse"><stop offset="0" stop-color="#1d5ab5" stop-opacity="0"/><stop offset="1" stop-color="#1d5ab5"/></linearGradient><path fill="url(#Cjg3raO-L6B7F728ECQW-j)" d="M37.54,61.46C34.655,58.576,33,54.581,33,50.5C33,41.953,39.953,35,48.5,35v1	C40.505,36,34,42.505,34,50.5c0,3.817,1.548,7.555,4.247,10.253L37.54,61.46z"/></svg>