<svg xmlns="http://www.w3.org/2000/svg"  viewBox="0 0 100 100" width="500px" height="500px" baseProfile="basic"><path fill="#1d5ab5" d="M93,64h-1v-1h1V64z M93,62h-1v-1h1V62z M93,60h-1v-1h1V60z M93,58h-1v-1h1V58z M93,56	h-1v-1h1V56z M93,54h-1v-1h1V54z M93,52h-1v-1h1V52z M93,50h-1v-1h1V50z M93,48h-1v-1h1V48z M93,46h-1v-1h1V46z M93,44h-1v-1h1V44z M93,42h-1v-1h1V42z M93,40h-1v-1h1V40z M93,38h-1v-1h1V38z M93,36h-1v-1h1V36z M93,34h-1v-1h1V34z M93,32h-1v-1h1V32z M93,30h-1v-1	h1V30z M93,28h-1v-1h1V28z M93,26h-1v-1h1V26z M93,24h-1v-1h1V24z M93,22h-1v-1h1V22z M93,20h-1v-1h1V20z" opacity=".25"/><linearGradient id="qxByN7GPtY1H0SI7MVk43a" x1="-587.402" x2="-544.819" y1="-851" y2="-851" gradientTransform="rotate(180 -246.25 -416.75)" gradientUnits="userSpaceOnUse"><stop offset="0" stop-color="#1d5ab5" stop-opacity="0"/><stop offset="1" stop-color="#1d5ab5"/></linearGradient><polygon fill="url(#qxByN7GPtY1H0SI7MVk43a)" points="93,17 58,17 58,18 93,18" opacity=".85"/><linearGradient id="qxByN7GPtY1H0SI7MVk43b" x1="-587.402" x2="-544.819" y1="-899" y2="-899" gradientTransform="rotate(180 -246.25 -416.75)" gradientUnits="userSpaceOnUse"><stop offset="0" stop-color="#1d5ab5" stop-opacity="0"/><stop offset="1" stop-color="#1d5ab5"/></linearGradient><polygon fill="url(#qxByN7GPtY1H0SI7MVk43b)" points="93,65 58,65 58,66 93,66" opacity=".85"/><circle cx="58.5" cy="41.5" r="23.5" fill="#f0f5ff"/><path fill="#1d5ab5" d="M58.5,66C44.99,66,34,55.01,34,41.5S44.99,17,58.5,17S83,27.99,83,41.5S72.01,66,58.5,66z M58.5,19	C46.094,19,36,29.094,36,41.5S46.094,64,58.5,64S81,53.906,81,41.5S70.906,19,58.5,19z"/><path fill="#f0f5ff" d="M19.2,80.8L19.2,80.8c-1.562-1.562-1.562-4.094,0-5.656l19.972-19.972l5.656,5.656L24.856,80.8	C23.294,82.362,20.762,82.362,19.2,80.8z"/><path fill="#1d5ab5" d="M22.028,82.972c-1.336,0-2.591-0.521-3.535-1.465l0,0l0,0l0,0c-0.944-0.944-1.465-2.199-1.465-3.535	c0-1.335,0.521-2.591,1.465-3.535l20.679-20.679l7.07,7.07L25.563,81.507C24.619,82.451,23.363,82.972,22.028,82.972z M39.172,56.586L19.907,75.851c-0.566,0.566-0.879,1.32-0.879,2.121c0,0.802,0.312,1.555,0.879,2.121l0,0	c1.132,1.133,3.108,1.133,4.242,0l19.265-19.265L39.172,56.586z"/><path fill="#1d5ab5" d="M39,42h-1v-1h1V42z M37,42h-1v-1h1V42z" opacity=".25"/><path fill="#1d5ab5" d="M91,42h-1v-1h1V42z M89,42h-1v-1h1V42z M87,42h-1v-1h1V42z M85,42h-1v-1h1V42z M83,42	h-1v-1h1V42z M81,42h-1v-1h1V42z M79,42h-1v-1h1V42z" opacity=".25"/><path fill="#1d5ab5" d="M59,64h-1v-1h1V64z M59,62h-1v-1h1V62z" opacity=".25"/><path fill="#1d5ab5" d="M59,22h-1v-1h1V22z M59,20h-1v-1h1V20z" opacity=".25"/><linearGradient id="qxByN7GPtY1H0SI7MVk43c" x1="20.495" x2="35.211" y1="78" y2="78" gradientUnits="userSpaceOnUse"><stop offset="0" stop-color="#1d5ab5" stop-opacity="0"/><stop offset="1" stop-color="#1d5ab5"/></linearGradient><path fill="url(#qxByN7GPtY1H0SI7MVk43c)" d="M22,82c-2.206,0-4-1.794-4-4s1.794-4,4-4s4,1.794,4,4S24.206,82,22,82z M22,75	c-1.654,0-3,1.346-3,3s1.346,3,3,3s3-1.346,3-3S23.654,75,22,75z"/><linearGradient id="qxByN7GPtY1H0SI7MVk43d" x1="29.277" x2="41.777" y1="45.923" y2="58.423" gradientUnits="userSpaceOnUse"><stop offset="0" stop-color="#1d5ab5" stop-opacity="0"/><stop offset="1" stop-color="#1d5ab5"/></linearGradient><polygon fill="url(#qxByN7GPtY1H0SI7MVk43d)" points="41.424,58.776 28.924,46.276 29.631,45.569 42.131,58.069"/><linearGradient id="qxByN7GPtY1H0SI7MVk43e" x1="-300.723" x2="-288.223" y1="-284.077" y2="-271.577" gradientTransform="matrix(0 -1 -1 0 -230 -230)" gradientUnits="userSpaceOnUse"><stop offset="0" stop-color="#1d5ab5" stop-opacity="0"/><stop offset="1" stop-color="#1d5ab5"/></linearGradient><polygon fill="url(#qxByN7GPtY1H0SI7MVk43e)" points="41.224,58.576 53.724,71.076 54.431,70.369 41.931,57.869"/><path fill="#1d5ab5" d="M8.471,68.144l-0.707-0.707l0.707-0.707l0.707,0.707L8.471,68.144z M9.885,66.729	l-0.707-0.707l0.707-0.707l0.707,0.707L9.885,66.729z M11.299,65.315l-0.707-0.707l0.707-0.707l0.707,0.707L11.299,65.315z M12.713,63.901l-0.707-0.707l0.708-0.708l0.707,0.707L12.713,63.901z M14.128,62.486l-0.707-0.707l0.707-0.707l0.707,0.707	L14.128,62.486z M15.542,61.072l-0.707-0.707l0.707-0.707l0.707,0.707L15.542,61.072z M16.956,59.658l-0.707-0.707l0.707-0.707	l0.707,0.707L16.956,59.658z M18.37,58.244l-0.707-0.707l0.707-0.707l0.707,0.707L18.37,58.244z M19.784,56.83l-0.707-0.707	l0.707-0.707l0.707,0.707L19.784,56.83z M21.198,55.416l-0.707-0.707l0.707-0.707l0.707,0.707L21.198,55.416z M22.613,54.001	l-0.707-0.707l0.707-0.707l0.707,0.707L22.613,54.001z M24.027,52.587L23.32,51.88l0.707-0.707l0.707,0.707L24.027,52.587z M25.441,51.173l-0.707-0.707l0.707-0.707l0.707,0.707L25.441,51.173z M26.855,49.759l-0.707-0.707l0.707-0.707l0.707,0.707	L26.855,49.759z M28.27,48.345l-0.707-0.707l0.707-0.707l0.707,0.707L28.27,48.345z" opacity=".25"/><linearGradient id="qxByN7GPtY1H0SI7MVk43f" x1="6.303" x2="21.758" y1="68.603" y2="84.058" gradientUnits="userSpaceOnUse"><stop offset="0" stop-color="#1d5ab5" stop-opacity="0"/><stop offset="1" stop-color="#1d5ab5"/></linearGradient><polygon fill="url(#qxByN7GPtY1H0SI7MVk43f)" points="18.597,81.604 6.097,69.104 6.804,68.396 19.304,80.896"/><path fill="#769ed6" d="M58.5,61C47.748,61,39,52.252,39,41.5S47.748,22,58.5,22S78,30.748,78,41.5S69.252,61,58.5,61z M58.5,23C48.299,23,40,31.299,40,41.5S48.299,60,58.5,60S77,51.701,77,41.5S68.701,23,58.5,23z"/><path fill="#1d5ab5" d="M64.19,59.1c0.82-0.26,1.62-0.58,2.38-0.96l8.57-8.57c0.38-0.76,0.7-1.56,0.96-2.38	L64.19,59.1z M60.59,59.88c0.57-0.06,1.13-0.15,1.68-0.27l14.34-14.34c0.12-0.55,0.21-1.11,0.27-1.68L60.59,59.88z M76.98,40.65	L57.65,59.98C57.93,59.99,58.21,60,58.5,60c0.19,0,0.38,0,0.56-0.01l17.93-17.93C77,41.88,77,41.69,77,41.5	C77,41.21,76.99,40.93,76.98,40.65z M76.68,38.13L55.13,59.68c0.4,0.09,0.81,0.15,1.22,0.19l20.52-20.52	C76.83,38.94,76.77,38.53,76.68,38.13z M76.12,35.86L52.86,59.12c0.36,0.11,0.72,0.22,1.09,0.32l22.49-22.49	C76.34,36.58,76.23,36.22,76.12,35.86z M75.32,33.83L50.83,58.32c0.33,0.16,0.66,0.3,1,0.42l23.91-23.91	C75.62,34.49,75.48,34.16,75.32,33.83z M74.35,31.98L48.97,57.35c0.3,0.18,0.6,0.35,0.91,0.51l24.98-24.98	C74.7,32.57,74.53,32.27,74.35,31.98z M73.2,30.29L47.29,56.2c0.27,0.21,0.54,0.41,0.82,0.6L73.8,31.11	C73.61,30.83,73.41,30.56,73.2,30.29z M71.91,28.76L45.76,54.91c0.24,0.23,0.49,0.45,0.75,0.66l26.06-26.06	C72.36,29.25,72.14,29,71.91,28.76z M70.44,27.39L44.39,53.45c0.21,0.26,0.43,0.51,0.66,0.75L71.2,28.05	C70.95,27.82,70.7,27.6,70.44,27.39z M68.85,26.16L43.16,51.85c0.2,0.27,0.39,0.55,0.6,0.81l25.91-25.9	C69.4,26.56,69.13,26.36,68.85,26.16z M67.07,25.11L42.11,50.07c0.16,0.31,0.33,0.61,0.51,0.9l25.35-25.35	C67.68,25.44,67.38,25.27,67.07,25.11z M65.12,24.23L41.23,48.12c0.13,0.34,0.27,0.68,0.42,1l24.47-24.47	C65.8,24.5,65.46,24.36,65.12,24.23z M62.98,23.55L40.55,45.98c0.09,0.37,0.2,0.74,0.31,1.1l23.21-23.22	C63.71,23.75,63.35,23.64,62.98,23.55z M60.57,23.12L40.12,43.57c0.04,0.42,0.1,0.83,0.18,1.24L61.81,23.3	C61.4,23.22,60.99,23.16,60.57,23.12z M58.5,23c-0.21,0-0.43,0-0.64,0.01L40.01,40.86C40,41.07,40,41.29,40,41.5	c0,0.26,0.01,0.51,0.02,0.76l19.24-19.24C59.01,23.01,58.76,23,58.5,23z M54.62,23.42l-14.2,14.2c-0.13,0.55-0.22,1.12-0.28,1.69	l16.17-16.17C55.74,23.2,55.17,23.29,54.62,23.42z M50.26,24.95l-8.31,8.31c-0.4,0.78-0.73,1.58-1,2.42l11.73-11.74	C51.84,24.22,51.04,24.55,50.26,24.95z" opacity=".3"/><linearGradient id="qxByN7GPtY1H0SI7MVk43g" x1="58.5" x2="58.5" y1="86" y2="67" gradientUnits="userSpaceOnUse"><stop offset="0" stop-color="#1d5ab5" stop-opacity="0"/><stop offset="1" stop-color="#1d5ab5"/></linearGradient><path fill="url(#qxByN7GPtY1H0SI7MVk43g)" d="M59,86h-1v-1h1V86z M59,84h-1v-1h1V84z M59,82h-1v-1h1V82z M59,80h-1v-1h1V80z M59,78h-1v-1h1V78z M59,76h-1v-1h1V76z M59,74h-1v-1h1V74z M59,72h-1v-1h1V72z M59,70h-1v-1h1V70z M59,68h-1v-1h1V68z" opacity=".25"/><linearGradient id="qxByN7GPtY1H0SI7MVk43h" x1="388.5" x2="388.5" y1="-244" y2="-263" gradientTransform="rotate(90 58.5 -288.5)" gradientUnits="userSpaceOnUse"><stop offset="0" stop-color="#1d5ab5" stop-opacity="0"/><stop offset="1" stop-color="#1d5ab5"/></linearGradient><path fill="url(#qxByN7GPtY1H0SI7MVk43h)" d="M14,42v-1h1v1H14z M16,42v-1h1v1H16z M18,42v-1h1v1H18z M20,42v-1h1v1H20z M22,42v-1h1v1H22z M24,42v-1h1v1H24z M26,42v-1h1v1H26z M28,42v-1h1v1H28z M30,42v-1h1v1H30z M32,42v-1h1v1H32z" opacity=".25"/><linearGradient id="qxByN7GPtY1H0SI7MVk43i" x1="388.5" x2="388.5" y1="-248" y2="-253" gradientTransform="matrix(0 1 1 0 347 -347)" gradientUnits="userSpaceOnUse"><stop offset="0" stop-color="#1d5ab5" stop-opacity="0"/><stop offset="1" stop-color="#1d5ab5"/></linearGradient><path fill="url(#qxByN7GPtY1H0SI7MVk43i)" d="M98,42v-1h1v1H98z M96,42v-1h1v1H96z M94,42v-1h1v1H94z" opacity=".25"/><linearGradient id="qxByN7GPtY1H0SI7MVk43j" x1="58.5" x2="58.5" y1="-578" y2="-593" gradientTransform="rotate(180 58.5 -288.5)" gradientUnits="userSpaceOnUse"><stop offset="0" stop-color="#1d5ab5" stop-opacity="0"/><stop offset="1" stop-color="#1d5ab5"/></linearGradient><path fill="url(#qxByN7GPtY1H0SI7MVk43j)" d="M58,1h1v1h-1V1z M58,3h1v1h-1V3z M58,5h1v1h-1V5z M58,7h1v1h-1V7z M58,9h1v1h-1	V9z M58,11h1v1h-1V11z M58,13h1v1h-1V13z M58,15h1v1h-1V15z" opacity=".25"/></svg>