<svg xmlns="http://www.w3.org/2000/svg"  viewBox="0 0 100 100" width="500px" height="500px" baseProfile="basic"><polygon fill="#f0f5ff" points="73,37.4 73.001,78 27.001,78 27.001,21 56.6,21"/><linearGradient id="KoFnrk1_MK8ruBwdFtdP5a" x1="92.793" x2="106.687" y1="0" y2="0" gradientTransform="translate(-67.5 53.5)" gradientUnits="userSpaceOnUse"><stop offset="0" stop-color="#fff" stop-opacity="0"/><stop offset="1" stop-color="#1d5ab5"/></linearGradient><rect width="13" height="1" x="26" y="53" fill="url(#KoFnrk1_MK8ruBwdFtdP5a)" opacity=".55"/><linearGradient id="KoFnrk1_MK8ruBwdFtdP5b" x1="92.793" x2="106.687" y1="8" y2="8" gradientTransform="translate(-67.5 53.5)" gradientUnits="userSpaceOnUse"><stop offset="0" stop-color="#fff" stop-opacity="0"/><stop offset="1" stop-color="#1d5ab5"/></linearGradient><rect width="13" height="1" x="26" y="61" fill="url(#KoFnrk1_MK8ruBwdFtdP5b)" opacity=".55"/><linearGradient id="KoFnrk1_MK8ruBwdFtdP5c" x1="92.793" x2="106.687" y1="16" y2="16" gradientTransform="translate(-67.5 53.5)" gradientUnits="userSpaceOnUse"><stop offset="0" stop-color="#fff" stop-opacity="0"/><stop offset="1" stop-color="#1d5ab5"/></linearGradient><rect width="13" height="1" x="26" y="69" fill="url(#KoFnrk1_MK8ruBwdFtdP5c)" opacity=".55"/><linearGradient id="KoFnrk1_MK8ruBwdFtdP5d" x1="107.739" x2="124.883" y1="-15" y2="-15" gradientTransform="rotate(-90 116 45.5)" gradientUnits="userSpaceOnUse"><stop offset="0" stop-color="#fff" stop-opacity="0"/><stop offset="1" stop-color="#1d5ab5"/></linearGradient><polygon fill="url(#KoFnrk1_MK8ruBwdFtdP5d)" points="56,53 56,39 55,39 55,53" opacity=".55"/><linearGradient id="KoFnrk1_MK8ruBwdFtdP5e" x1="118.685" x2="134.716" y1="14" y2="14" gradientTransform="rotate(180 96.75 33.75)" gradientUnits="userSpaceOnUse"><stop offset="0" stop-color="#fff" stop-opacity="0"/><stop offset="1" stop-color="#1d5ab5"/></linearGradient><polygon fill="url(#KoFnrk1_MK8ruBwdFtdP5e)" points="74,53 59,53 59,54 74,54" opacity=".55"/><linearGradient id="KoFnrk1_MK8ruBwdFtdP5f" x1="118.685" x2="134.716" y1="6" y2="6" gradientTransform="rotate(180 96.75 33.75)" gradientUnits="userSpaceOnUse"><stop offset="0" stop-color="#fff" stop-opacity="0"/><stop offset="1" stop-color="#1d5ab5"/></linearGradient><polygon fill="url(#KoFnrk1_MK8ruBwdFtdP5f)" points="74,61 59,61 59,62 74,62" opacity=".55"/><linearGradient id="KoFnrk1_MK8ruBwdFtdP5g" x1="128.685" x2="144.716" y1="-2" y2="-2" gradientTransform="rotate(180 96.75 33.75)" gradientUnits="userSpaceOnUse"><stop offset="0" stop-color="#fff" stop-opacity="0"/><stop offset="1" stop-color="#1d5ab5"/></linearGradient><polygon fill="url(#KoFnrk1_MK8ruBwdFtdP5g)" points="64,69 49,69 49,70 64,70" opacity=".55"/><linearGradient id="KoFnrk1_MK8ruBwdFtdP5h" x1="84.561" x2="70.197" y1="48.254" y2="33.889" gradientUnits="userSpaceOnUse"><stop offset="0" stop-color="#1d5ab5" stop-opacity="0"/><stop offset="1" stop-color="#1d5ab5"/></linearGradient><polygon fill="url(#KoFnrk1_MK8ruBwdFtdP5h)" points="84.208,48.607 72.896,37.296 73.604,36.589 84.915,47.9" opacity=".85"/><linearGradient id="KoFnrk1_MK8ruBwdFtdP5i" x1="84.561" x2="70.197" y1="48.254" y2="33.889" gradientTransform="matrix(0 -1 -1 0 94 94)" gradientUnits="userSpaceOnUse"><stop offset="0" stop-color="#1d5ab5" stop-opacity="0"/><stop offset="1" stop-color="#1d5ab5"/></linearGradient><polygon fill="url(#KoFnrk1_MK8ruBwdFtdP5i)" points="45.393,9.792 56.704,21.104 57.411,20.396 46.1,9.085" opacity=".85"/><path fill="#1d5ab5" d="M74.001,79h-48V20h31.013L74,36.986L74.001,79z M28.001,77h44L72,37.814L56.186,22H28.001V77z"/><rect width="24" height="2" x="38" y="52" fill="#1d5ab5"/><rect width="24" height="2" x="38" y="60" fill="#1d5ab5"/><rect width="13" height="2" x="38" y="68" fill="#1d5ab5"/><path fill="#1d5ab5" d="M34,52h-1v-1h1V52z M34,50h-1v-1h1V50z M34,48h-1v-1h1V48z M34,46h-1v-1h1V46z M34,44	h-1v-1h1V44z M34,42h-1v-1h1V42z M34,40h-1v-1h1V40z M34,38h-1v-1h1V38z M34,36h-1v-1h1V36z M34,34h-1v-1h1V34z M34,32h-1v-1h1V32z M34,30h-1v-1h1V30z M34,28h-1v-1h1V28z M34,26h-1v-1h1V26z M34,24h-1v-1h1V24z" opacity=".25"/><path fill="#1d5ab5" d="M56,76h-1v-1h1V76z M56,74h-1v-1h1V74z M56,72h-1v-1h1V72z" opacity=".25"/><path fill="#1d5ab5" d="M72,45h-1v-1h1V45z M70,45h-1v-1h1V45z M68,45h-1v-1h1V45z M66,45h-1v-1h1V45z M64,45	h-1v-1h1V45z M62,45h-1v-1h1V45z M60,45h-1v-1h1V45z M58,45h-1v-1h1V45z" opacity=".25"/><path fill="#1d5ab5" d="M73,88h-1v-1h1V88z M71,88h-1v-1h1V88z M69,88h-1v-1h1V88z M67,88h-1v-1h1V88z M65,88	h-1v-1h1V88z M63,88h-1v-1h1V88z M61,88h-1v-1h1V88z M59,88h-1v-1h1V88z M57,88h-1v-1h1V88z M55,88h-1v-1h1V88z M53,88h-1v-1h1V88z M51,88h-1v-1h1V88z M49,88h-1v-1h1V88z M47,88h-1v-1h1V88z M45,88h-1v-1h1V88z M43,88h-1v-1h1V88z M41,88h-1v-1h1V88z M39,88h-1v-1	h1V88z M37,88h-1v-1h1V88z M35,88h-1v-1h1V88z M33,88h-1v-1h1V88z M31,88h-1v-1h1V88z M29,88h-1v-1h1V88z" opacity=".25"/><path fill="#1d5ab5" d="M18,77h-1v-1h1V77z M18,75h-1v-1h1V75z M18,73h-1v-1h1V73z M18,71h-1v-1h1V71z M18,69	h-1v-1h1V69z M18,67h-1v-1h1V67z M18,65h-1v-1h1V65z M18,63h-1v-1h1V63z M18,61h-1v-1h1V61z M18,59h-1v-1h1V59z M18,57h-1v-1h1V57z M18,55h-1v-1h1V55z M18,53h-1v-1h1V53z M18,51h-1v-1h1V51z M18,49h-1v-1h1V49z M18,47h-1v-1h1V47z M18,45h-1v-1h1V45z M18,43h-1v-1	h1V43z M18,41h-1v-1h1V41z M18,39h-1v-1h1V39z M18,37h-1v-1h1V37z M18,35h-1v-1h1V35z M18,33h-1v-1h1V33z M18,31h-1v-1h1V31z M18,29	h-1v-1h1V29z M18,27h-1v-1h1V27z M18,25h-1v-1h1V25z M18,23h-1v-1h1V23z" opacity=".25"/><polygon fill="#1d5ab5" points="73,39 55,39 55,21 56,21 56,38 73,38" opacity=".55"/><linearGradient id="KoFnrk1_MK8ruBwdFtdP5j" x1="-587.277" x2="-558.88" y1="407" y2="407" gradientTransform="matrix(1 0 0 -1 592.5 485.5)" gradientUnits="userSpaceOnUse"><stop offset="0" stop-color="#1d5ab5" stop-opacity="0"/><stop offset="1" stop-color="#1d5ab5"/></linearGradient><rect width="22" height="1" x="5" y="78" fill="url(#KoFnrk1_MK8ruBwdFtdP5j)" opacity=".85"/><linearGradient id="KoFnrk1_MK8ruBwdFtdP5k" x1="-587.277" x2="-558.88" y1="407" y2="407" gradientTransform="matrix(0 -1 -1 0 433.5 -487.5)" gradientUnits="userSpaceOnUse"><stop offset="0" stop-color="#1d5ab5" stop-opacity="0"/><stop offset="1" stop-color="#1d5ab5"/></linearGradient><polygon fill="url(#KoFnrk1_MK8ruBwdFtdP5k)" points="26,100 26,78 27,78 27,100" opacity=".85"/><linearGradient id="KoFnrk1_MK8ruBwdFtdP5l" x1="-590.277" x2="-561.88" y1="407" y2="407" gradientTransform="rotate(180 -247.75 242.75)" gradientUnits="userSpaceOnUse"><stop offset="0" stop-color="#1d5ab5" stop-opacity="0"/><stop offset="1" stop-color="#1d5ab5"/></linearGradient><polygon fill="url(#KoFnrk1_MK8ruBwdFtdP5l)" points="95,78 73,78 73,79 95,79" opacity=".85"/><linearGradient id="KoFnrk1_MK8ruBwdFtdP5m" x1="-568.338" x2="-547.685" y1="465" y2="465" gradientTransform="rotate(180 -247.75 242.75)" gradientUnits="userSpaceOnUse"><stop offset="0" stop-color="#1d5ab5" stop-opacity="0"/><stop offset="1" stop-color="#1d5ab5"/></linearGradient><polygon fill="url(#KoFnrk1_MK8ruBwdFtdP5m)" points="73,20 57,20 57,21 73,21" opacity=".85"/><linearGradient id="KoFnrk1_MK8ruBwdFtdP5n" x1="-579.328" x2="-557.384" y1="454" y2="454" gradientTransform="rotate(90 -36.5 564)" gradientUnits="userSpaceOnUse"><stop offset="0" stop-color="#1d5ab5" stop-opacity="0"/><stop offset="1" stop-color="#1d5ab5"/></linearGradient><polygon fill="url(#KoFnrk1_MK8ruBwdFtdP5n)" points="73,21 73,38 74,38 74,21" opacity=".85"/><linearGradient id="KoFnrk1_MK8ruBwdFtdP5o" x1="-587.277" x2="-558.88" y1="410" y2="410" gradientTransform="rotate(-90 -412 -75.5)" gradientUnits="userSpaceOnUse"><stop offset="0" stop-color="#1d5ab5" stop-opacity="0"/><stop offset="1" stop-color="#1d5ab5"/></linearGradient><polygon fill="url(#KoFnrk1_MK8ruBwdFtdP5o)" points="74,100 74,78 73,78 73,100" opacity=".85"/><linearGradient id="KoFnrk1_MK8ruBwdFtdP5p" x1="-587.277" x2="-558.88" y1="465" y2="465" gradientTransform="matrix(1 0 0 -1 592.5 485.5)" gradientUnits="userSpaceOnUse"><stop offset="0" stop-color="#1d5ab5" stop-opacity="0"/><stop offset="1" stop-color="#1d5ab5"/></linearGradient><rect width="22" height="1" x="5" y="20" fill="url(#KoFnrk1_MK8ruBwdFtdP5p)" opacity=".85"/><linearGradient id="KoFnrk1_MK8ruBwdFtdP5q" x1="-586.287" x2="-559.181" y1="465" y2="465" gradientTransform="matrix(0 1 1 0 -438.5 586.5)" gradientUnits="userSpaceOnUse"><stop offset="0" stop-color="#1d5ab5" stop-opacity="0"/><stop offset="1" stop-color="#1d5ab5"/></linearGradient><polygon fill="url(#KoFnrk1_MK8ruBwdFtdP5q)" points="27,0 27,21 26,21 26,0" opacity=".85"/><path fill="#1d5ab5" d="M70.81,36.62L69.43,38h1.41l0.68-0.67L70.81,36.62z M56,23.15v1.42l1.38-1.38l-0.71-0.71	L56,23.15z M69.4,35.21L66.6,38h1.42l2.09-2.08L69.4,35.21z M56,25.98v1.42l2.8-2.79l-0.71-0.71L56,25.98z M67.98,33.79L63.77,38	h1.42l3.5-3.5L67.98,33.79z M56,28.81v1.42l4.21-4.21l-0.71-0.71L56,28.81z M66.57,32.38L60.95,38h1.41l4.92-4.91L66.57,32.38z M60.92,26.73L56,31.64v1.41l5.62-5.62L60.92,26.73z M65.16,30.97L58.12,38h1.41l6.33-6.33L65.16,30.97z M63.74,29.55L56,37.29V38	h0.71l7.74-7.74L63.74,29.55z M62.33,28.14L56,34.47v1.41l7.04-7.03L62.33,28.14z" opacity=".3"/></svg>