<svg xmlns="http://www.w3.org/2000/svg"  viewBox="0 0 100 100" width="100px" height="100px" baseProfile="basic"><path fill="#f0f5ff" d="M69,45V33.5C69,23.283,60.717,15,50.5,15S32,23.283,32,33.5V45c-3.314,0-6,2.686-6,6v31h49V51	C75,47.686,72.314,45,69,45z"/><path fill="#1d5ab5" d="M13,81h-1v-1h1V81z M13,79h-1v-1h1V79z M13,77h-1v-1h1V77z M13,75h-1v-1h1V75z M13,73	h-1v-1h1V73z M13,71h-1v-1h1V71z M13,69h-1v-1h1V69z M13,67h-1v-1h1V67z M13,65h-1v-1h1V65z M13,63h-1v-1h1V63z M13,61h-1v-1h1V61z M13,59h-1v-1h1V59z M13,57h-1v-1h1V57z M13,55h-1v-1h1V55z M13,53h-1v-1h1V53z M13,51h-1v-1h1V51z M13,49h-1v-1h1V49z M13,47h-1v-1	h1V47z" opacity=".25"/><path fill="#1d5ab5" d="M87,43h-1v-1h1V43z M87,41h-1v-1h1V41z M87,39h-1v-1h1V39z M87,37h-1v-1h1V37z M87,35	h-1v-1h1V35z M87,33h-1v-1h1V33z M87,31h-1v-1h1V31z M87,29h-1v-1h1V29z M87,27h-1v-1h1V27z M87,25h-1v-1h1V25z M87,23h-1v-1h1V23z M87,21h-1v-1h1V21z M87,19h-1v-1h1V19z M87,17h-1v-1h1V17z" opacity=".25"/><path fill="#1d5ab5" d="M74,92h-1v-1h1V92z M72,92h-1v-1h1V92z M70,92h-1v-1h1V92z M68,92h-1v-1h1V92z M66,92	h-1v-1h1V92z M64,92h-1v-1h1V92z M62,92h-1v-1h1V92z M60,92h-1v-1h1V92z M58,92h-1v-1h1V92z M56,92h-1v-1h1V92z M54,92h-1v-1h1V92z M52,92h-1v-1h1V92z M50,92h-1v-1h1V92z M48,92h-1v-1h1V92z M46,92h-1v-1h1V92z M44,92h-1v-1h1V92z M42,92h-1v-1h1V92z M40,92h-1v-1	h1V92z M38,92h-1v-1h1V92z M36,92h-1v-1h1V92z M34,92h-1v-1h1V92z M32,92h-1v-1h1V92z M30,92h-1v-1h1V92z M28,92h-1v-1h1V92z" opacity=".25"/><path fill="#1d5ab5" d="M73,61h-1v-1h1V61z M71,61h-1v-1h1V61z M69,61h-1v-1h1V61z M67,61h-1v-1h1V61z M65,61	h-1v-1h1V61z M63,61h-1v-1h1V61z M61,61h-1v-1h1V61z M59,61h-1v-1h1V61z M57,61h-1v-1h1V61z M55,61h-1v-1h1V61z M53,61h-1v-1h1V61z M51,61h-1v-1h1V61z M49,61h-1v-1h1V61z M47,61h-1v-1h1V61z M45,61h-1v-1h1V61z M43,61h-1v-1h1V61z M41,61h-1v-1h1V61z M39,61h-1v-1	h1V61z M37,61h-1v-1h1V61z M35,61h-1v-1h1V61z M33,61h-1v-1h1V61z M31,61h-1v-1h1V61z M29,61h-1v-1h1V61z" opacity=".25"/><linearGradient id="aycRdI8kC-RCga_-XMGy8a" x1="-370.696" x2="-337.411" y1="29" y2="29" gradientTransform="matrix(-1 0 0 1 -272.5 53.5)" gradientUnits="userSpaceOnUse"><stop offset="0" stop-color="#1d5ab5" stop-opacity="0"/><stop offset="1" stop-color="#1d5ab5"/></linearGradient><polygon fill="url(#aycRdI8kC-RCga_-XMGy8a)" points="97,83 75,83 75,82 97,82" opacity=".85"/><linearGradient id="aycRdI8kC-RCga_-XMGy8b" x1="-589.696" x2="-556.411" y1="184" y2="184" gradientTransform="matrix(1 0 0 -1 592.5 266.5)" gradientUnits="userSpaceOnUse"><stop offset="0" stop-color="#1d5ab5" stop-opacity="0"/><stop offset="1" stop-color="#1d5ab5"/></linearGradient><rect width="22" height="1" x="4" y="82" fill="url(#aycRdI8kC-RCga_-XMGy8b)" opacity=".85"/><linearGradient id="aycRdI8kC-RCga_-XMGy8c" x1="-589.967" x2="-549.118" y1="222" y2="222" gradientTransform="matrix(1 0 0 -1 592.5 266.5)" gradientUnits="userSpaceOnUse"><stop offset="0" stop-color="#1d5ab5" stop-opacity="0"/><stop offset="1" stop-color="#1d5ab5"/></linearGradient><rect width="27" height="1" x="4" y="44" fill="url(#aycRdI8kC-RCga_-XMGy8c)" opacity=".85"/><linearGradient id="aycRdI8kC-RCga_-XMGy8d" x1="-372" x2="-302.404" y1="252" y2="252" gradientTransform="rotate(180 -136.25 133.25)" gradientUnits="userSpaceOnUse"><stop offset="0" stop-color="#1d5ab5" stop-opacity="0"/><stop offset="1" stop-color="#1d5ab5"/></linearGradient><polygon fill="url(#aycRdI8kC-RCga_-XMGy8d)" points="97,14 51,14 51,15 97,15" opacity=".85"/><linearGradient id="aycRdI8kC-RCga_-XMGy8e" x1="-370.967" x2="-330.118" y1="222" y2="222" gradientTransform="rotate(180 -136.25 133.25)" gradientUnits="userSpaceOnUse"><stop offset="0" stop-color="#1d5ab5" stop-opacity="0"/><stop offset="1" stop-color="#1d5ab5"/></linearGradient><polygon fill="url(#aycRdI8kC-RCga_-XMGy8e)" points="97,44 70,44 70,45 97,45" opacity=".85"/><linearGradient id="aycRdI8kC-RCga_-XMGy8f" x1="-373.478" x2="-346.245" y1="241" y2="241" gradientTransform="matrix(0 -1 -1 0 266.5 -272.5)" gradientUnits="userSpaceOnUse"><stop offset="0" stop-color="#1d5ab5" stop-opacity="0"/><stop offset="1" stop-color="#1d5ab5"/></linearGradient><polygon fill="url(#aycRdI8kC-RCga_-XMGy8f)" points="25,100 25,82 26,82 26,100" opacity=".85"/><linearGradient id="aycRdI8kC-RCga_-XMGy8g" x1="-373.478" x2="-346.245" y1="191" y2="191" gradientTransform="matrix(0 -1 -1 0 266.5 -272.5)" gradientUnits="userSpaceOnUse"><stop offset="0" stop-color="#1d5ab5" stop-opacity="0"/><stop offset="1" stop-color="#1d5ab5"/></linearGradient><polygon fill="url(#aycRdI8kC-RCga_-XMGy8g)" points="75,100 75,82 76,82 76,100" opacity=".85"/><path fill="#1d5ab5" d="M76,83H25V51c0-3.521,2.612-6.442,6-6.929V33.5C31,22.748,39.748,14,50.5,14S70,22.748,70,33.5	v10.571c3.388,0.487,6,3.408,6,6.929V83z M27,81h47V51c0-2.757-2.243-5-5-5h-1V33.5C68,23.851,60.149,16,50.5,16S33,23.851,33,33.5	V46h-1c-2.757,0-5,2.243-5,5V81z"/><path fill="#1d5ab5" d="M55,75h-9v-8.506c-1.889-1.416-3-3.617-3-5.994c0-4.136,3.364-7.5,7.5-7.5s7.5,3.364,7.5,7.5	c0,2.377-1.111,4.579-3,5.994V75z M48,73h5v-7.575l0.46-0.295c1.591-1.02,2.54-2.75,2.54-4.63c0-3.033-2.468-5.5-5.5-5.5	S45,57.467,45,60.5c0,1.879,0.949,3.61,2.54,4.63L48,65.425V73z"/><linearGradient id="aycRdI8kC-RCga_-XMGy8h" x1="-330.674" x2="-307.98" y1="198" y2="198" gradientTransform="matrix(0 -1 -1 0 266.5 -272.5)" gradientUnits="userSpaceOnUse"><stop offset="0" stop-color="#1d5ab5" stop-opacity="0"/><stop offset="1" stop-color="#1d5ab5"/></linearGradient><polygon fill="url(#aycRdI8kC-RCga_-XMGy8h)" points="68,60 68,45 69,45 69,60" opacity=".85"/><linearGradient id="aycRdI8kC-RCga_-XMGy8i" x1="-352.648" x2="-342.057" y1="212" y2="212" gradientTransform="matrix(0 -1 -1 0 266.5 -272.5)" gradientUnits="userSpaceOnUse"><stop offset="0" stop-color="#1d5ab5" stop-opacity="0"/><stop offset="1" stop-color="#1d5ab5"/></linearGradient><polygon fill="url(#aycRdI8kC-RCga_-XMGy8i)" points="54,81 54,74 55,74 55,81" opacity=".85"/><linearGradient id="aycRdI8kC-RCga_-XMGy8j" x1="-245.283" x2="-230.153" y1="102" y2="102" gradientTransform="matrix(-1 0 0 1 -182.5 -27.5)" gradientUnits="userSpaceOnUse"><stop offset="0" stop-color="#1d5ab5" stop-opacity="0"/><stop offset="1" stop-color="#1d5ab5"/></linearGradient><polygon fill="url(#aycRdI8kC-RCga_-XMGy8j)" points="64,75 54,75 54,74 64,74" opacity=".85"/><linearGradient id="aycRdI8kC-RCga_-XMGy8k" x1="-352.648" x2="-342.057" y1="220" y2="220" gradientTransform="matrix(0 -1 -1 0 266.5 -272.5)" gradientUnits="userSpaceOnUse"><stop offset="0" stop-color="#1d5ab5" stop-opacity="0"/><stop offset="1" stop-color="#1d5ab5"/></linearGradient><polygon fill="url(#aycRdI8kC-RCga_-XMGy8k)" points="46,81 46,74 47,74 47,81" opacity=".85"/><linearGradient id="aycRdI8kC-RCga_-XMGy8l" x1="-465.283" x2="-450.153" y1="110" y2="110" gradientTransform="matrix(1 0 0 -1 503.5 184.5)" gradientUnits="userSpaceOnUse"><stop offset="0" stop-color="#1d5ab5" stop-opacity="0"/><stop offset="1" stop-color="#1d5ab5"/></linearGradient><rect width="10" height="1" x="37" y="74" fill="url(#aycRdI8kC-RCga_-XMGy8l)" opacity=".85"/><linearGradient id="aycRdI8kC-RCga_-XMGy8m" x1="-330.674" x2="-307.98" y1="234" y2="234" gradientTransform="matrix(0 -1 -1 0 266.5 -272.5)" gradientUnits="userSpaceOnUse"><stop offset="0" stop-color="#1d5ab5" stop-opacity="0"/><stop offset="1" stop-color="#1d5ab5"/></linearGradient><polygon fill="url(#aycRdI8kC-RCga_-XMGy8m)" points="32,60 32,45 33,45 33,60" opacity=".85"/><linearGradient id="aycRdI8kC-RCga_-XMGy8n" x1="-330.674" x2="-307.98" y1="228" y2="228" gradientTransform="matrix(0 -1 -1 0 266.5 -272.5)" gradientUnits="userSpaceOnUse"><stop offset="0" stop-color="#1d5ab5" stop-opacity="0"/><stop offset="1" stop-color="#1d5ab5"/></linearGradient><polygon fill="url(#aycRdI8kC-RCga_-XMGy8n)" points="38,60 38,45 39,45 39,60" opacity=".85"/><linearGradient id="aycRdI8kC-RCga_-XMGy8o" x1="-330.674" x2="-307.98" y1="204" y2="204" gradientTransform="matrix(0 -1 -1 0 266.5 -272.5)" gradientUnits="userSpaceOnUse"><stop offset="0" stop-color="#1d5ab5" stop-opacity="0"/><stop offset="1" stop-color="#1d5ab5"/></linearGradient><polygon fill="url(#aycRdI8kC-RCga_-XMGy8o)" points="62,60 62,45 63,45 63,60" opacity=".85"/><path fill="#f0f5ff" d="M62,46V33.5C62,27.149,56.851,22,50.5,22h0C44.149,22,39,27.149,39,33.5C39,38,39,46,39,46"/><path fill="#1d5ab5" d="M63,46h-2V33.5C61,27.71,56.29,23,50.5,23S40,27.71,40,33.5V46h-2V33.5C38,26.607,43.607,21,50.5,21	S63,26.607,63,33.5V46z"/><path fill="#1d5ab5" d="M61.24,46H62v-0.76L61.24,46z M58.42,46h1.42L62,43.84v-1.42L58.42,46z M55.6,46H57l5-5	v-1.4L55.6,46z M52.76,46h1.42L62,38.18v-1.42L52.76,46z M49.94,46h1.41L62,35.35v-1.41L49.94,46z M61.79,31.31L47.1,46h1.42	l13.44-13.44C61.93,32.14,61.87,31.72,61.79,31.31z M61.14,29.14L44.28,46h1.42l15.81-15.81C61.41,29.83,61.28,29.48,61.14,29.14z M60.17,27.28L41.45,46h1.41l17.83-17.83C60.53,27.86,60.36,27.57,60.17,27.28z M58.93,25.69L39,45.62V46h1.04l19.54-19.54	C59.38,26.19,59.16,25.93,58.93,25.69z M57.45,24.35L39,42.8v1.4l19.22-19.22C57.97,24.76,57.72,24.54,57.45,24.35z M55.71,23.25	L39,39.96v1.42l17.61-17.61C56.32,23.58,56.02,23.4,55.71,23.25z M53.69,22.45L39,37.14v1.41l15.74-15.74	C54.4,22.67,54.05,22.55,53.69,22.45z M51.27,22.03L39,34.3v1.42l13.54-13.54C52.13,22.11,51.7,22.05,51.27,22.03z M48.26,22.22	l-9.04,9.04c-0.11,0.53-0.17,1.07-0.21,1.63l10.88-10.88C49.33,22.05,48.79,22.11,48.26,22.22z M39.81,29.25l6.44-6.44	C43.32,23.98,40.98,26.32,39.81,29.25z" opacity=".3"/><path fill="#1d5ab5" d="M51,81h-1v-1h1V81z M51,79h-1v-1h1V79z M51,77h-1v-1h1V77z M51,75h-1v-1h1V75z M51,73	h-1v-1h1V73z M51,71h-1v-1h1V71z M51,69h-1v-1h1V69z M51,65h-1v-1h1V65z M51,63h-1v-1h1V63z M51,59h-1v-1h1V59z M51,57h-1v-1h1V57z M51,55h-1v-1h1V55z M51,53h-1v-1h1V53z M51,51h-1v-1h1V51z M51,49h-1v-1h1V49z M51,47h-1v-1h1V47z" opacity=".25"/><linearGradient id="aycRdI8kC-RCga_-XMGy8p" x1="47.065" x2="67.173" y1="60.5" y2="60.5" gradientUnits="userSpaceOnUse"><stop offset="0" stop-color="#1d5ab5" stop-opacity="0"/><stop offset="1" stop-color="#1d5ab5"/></linearGradient><path fill="url(#aycRdI8kC-RCga_-XMGy8p)" d="M50.5,67c-3.584,0-6.5-2.916-6.5-6.5s2.916-6.5,6.5-6.5s6.5,2.916,6.5,6.5S54.084,67,50.5,67	z M50.5,55c-3.032,0-5.5,2.467-5.5,5.5s2.468,5.5,5.5,5.5s5.5-2.467,5.5-5.5S53.532,55,50.5,55z"/><rect width="21" height="1" x="40" y="45" fill="#769ed6"/></svg>