<svg xmlns="http://www.w3.org/2000/svg"  viewBox="0 0 100 100" width="50px" height="50px" baseProfile="basic"><rect width="54" height="54" x="23" y="23" fill="#f0f5ff"/><path fill="#1d5ab5" d="M13,77h-1v-1h1V77z M13,75h-1v-1h1V75z M13,73h-1v-1h1V73z M13,71h-1v-1h1V71z M13,69	h-1v-1h1V69z M13,67h-1v-1h1V67z M13,65h-1v-1h1V65z M13,63h-1v-1h1V63z M13,61h-1v-1h1V61z M13,59h-1v-1h1V59z M13,57h-1v-1h1V57z M13,55h-1v-1h1V55z M13,53h-1v-1h1V53z M13,51h-1v-1h1V51z M13,49h-1v-1h1V49z M13,47h-1v-1h1V47z M13,45h-1v-1h1V45z M13,43h-1v-1	h1V43z M13,41h-1v-1h1V41z M13,39h-1v-1h1V39z M13,37h-1v-1h1V37z M13,35h-1v-1h1V35z M13,33h-1v-1h1V33z M13,31h-1v-1h1V31z M13,29	h-1v-1h1V29z M13,27h-1v-1h1V27z M13,25h-1v-1h1V25z" opacity=".25"/><path fill="#1d5ab5" d="M41,13h-1v-1h1V13z M39,13h-1v-1h1V13z M37,13h-1v-1h1V13z M35,13h-1v-1h1V13z M33,13	h-1v-1h1V13z M31,13h-1v-1h1V13z M29,13h-1v-1h1V13z M27,13h-1v-1h1V13z M25,13h-1v-1h1V13z" opacity=".25"/><path fill="#1d5ab5" d="M76,13h-1v-1h1V13z M74,13h-1v-1h1V13z M72,13h-1v-1h1V13z M70,13h-1v-1h1V13z M68,13	h-1v-1h1V13z M66,13h-1v-1h1V13z M64,13h-1v-1h1V13z M62,13h-1v-1h1V13z M60,13h-1v-1h1V13z" opacity=".25"/><linearGradient id="M_yKDJK7yqT2O8Xol967ba" x1="-1251.277" x2="-1222.88" y1="629" y2="629" gradientTransform="matrix(0 1 1 0 -606.5 1252.5)" gradientUnits="userSpaceOnUse"><stop offset="0" stop-color="#1d5ab5" stop-opacity="0"/><stop offset="1" stop-color="#1d5ab5"/></linearGradient><polygon fill="url(#M_yKDJK7yqT2O8Xol967ba)" points="23,1 23,23 22,23 22,1" opacity=".85"/><linearGradient id="M_yKDJK7yqT2O8Xol967bb" x1="-1251.277" x2="-1222.88" y1="684" y2="684" gradientTransform="matrix(0 1 1 0 -606.5 1252.5)" gradientUnits="userSpaceOnUse"><stop offset="0" stop-color="#1d5ab5" stop-opacity="0"/><stop offset="1" stop-color="#1d5ab5"/></linearGradient><polygon fill="url(#M_yKDJK7yqT2O8Xol967bb)" points="78,1 78,23 77,23 77,1" opacity=".85"/><linearGradient id="M_yKDJK7yqT2O8Xol967bc" x1="-591.277" x2="-562.88" y1="464" y2="464" gradientTransform="matrix(1 0 0 -1 592.5 486.5)" gradientUnits="userSpaceOnUse"><stop offset="0" stop-color="#1d5ab5" stop-opacity="0"/><stop offset="1" stop-color="#1d5ab5"/></linearGradient><rect width="22" height="1" x="1" y="22" fill="url(#M_yKDJK7yqT2O8Xol967bc)" opacity=".85"/><linearGradient id="M_yKDJK7yqT2O8Xol967bd" x1="-811.277" x2="-782.88" y1="-196" y2="-196" gradientTransform="matrix(0 -1 -1 0 -173.5 -712.5)" gradientUnits="userSpaceOnUse"><stop offset="0" stop-color="#1d5ab5" stop-opacity="0"/><stop offset="1" stop-color="#1d5ab5"/></linearGradient><polygon fill="url(#M_yKDJK7yqT2O8Xol967bd)" points="22,99 22,77 23,77 23,99" opacity=".85"/><linearGradient id="M_yKDJK7yqT2O8Xol967be" x1="-1471.277" x2="-1442.88" y1="24" y2="24" gradientTransform="matrix(-1 0 0 1 -1372.5 53.5)" gradientUnits="userSpaceOnUse"><stop offset="0" stop-color="#1d5ab5" stop-opacity="0"/><stop offset="1" stop-color="#1d5ab5"/></linearGradient><polygon fill="url(#M_yKDJK7yqT2O8Xol967be)" points="99,78 77,78 77,77 99,77" opacity=".85"/><linearGradient id="M_yKDJK7yqT2O8Xol967bf" x1="-591.277" x2="-562.88" y1="408" y2="408" gradientTransform="matrix(1 0 0 -1 592.5 485.5)" gradientUnits="userSpaceOnUse"><stop offset="0" stop-color="#1d5ab5" stop-opacity="0"/><stop offset="1" stop-color="#1d5ab5"/></linearGradient><rect width="22" height="1" x="1" y="77" fill="url(#M_yKDJK7yqT2O8Xol967bf)" opacity=".85"/><linearGradient id="M_yKDJK7yqT2O8Xol967bg" x1="-812.277" x2="-783.88" y1="-252" y2="-252" gradientTransform="matrix(0 -1 -1 0 -174.5 -713.5)" gradientUnits="userSpaceOnUse"><stop offset="0" stop-color="#1d5ab5" stop-opacity="0"/><stop offset="1" stop-color="#1d5ab5"/></linearGradient><polygon fill="url(#M_yKDJK7yqT2O8Xol967bg)" points="77,99 77,77 78,77 78,99" opacity=".85"/><linearGradient id="M_yKDJK7yqT2O8Xol967bh" x1="-1472.277" x2="-1443.88" y1="-31" y2="-31" gradientTransform="matrix(-1 0 0 1 -1373.5 53.5)" gradientUnits="userSpaceOnUse"><stop offset="0" stop-color="#1d5ab5" stop-opacity="0"/><stop offset="1" stop-color="#1d5ab5"/></linearGradient><polygon fill="url(#M_yKDJK7yqT2O8Xol967bh)" points="99,23 77,23 77,22 99,22" opacity=".85"/><rect width="1" height="10" x="59" y="62" fill="#769ed6"/><polygon fill="#769ed6" points="61.994,64.978 59.5,62.483 57.006,64.978 56.299,64.271 59.5,61.069 62.701,64.271"/><rect width="1" height="10" x="68" y="62" fill="#769ed6"/><polygon fill="#769ed6" points="70.994,64.978 68.5,62.483 66.006,64.978 65.299,64.271 68.5,61.069 71.701,64.271"/><linearGradient id="M_yKDJK7yqT2O8Xol967bi" x1="-1222.389" x2="-1199.611" y1="646.001" y2="646.001" gradientTransform="rotate(180 -576.75 343.25)" gradientUnits="userSpaceOnUse"><stop offset="0" stop-color="#1d5ab5" stop-opacity="0"/><stop offset="1" stop-color="#1d5ab5"/></linearGradient><rect width="11" height="1" x="58" y="39.999" fill="url(#M_yKDJK7yqT2O8Xol967bi)" opacity=".85"/><linearGradient id="M_yKDJK7yqT2O8Xol967bj" x1="-1223.389" x2="-1200.611" y1="647.001" y2="647.001" gradientTransform="rotate(-90 -880.5 -292)" gradientUnits="userSpaceOnUse"><stop offset="0" stop-color="#1d5ab5" stop-opacity="0"/><stop offset="1" stop-color="#1d5ab5"/></linearGradient><rect width="1" height="11" x="58.001" y="40" fill="url(#M_yKDJK7yqT2O8Xol967bj)" opacity=".85"/><linearGradient id="M_yKDJK7yqT2O8Xol967bk" x1="-1223.389" x2="-1200.611" y1="646.001" y2="646.001" gradientTransform="matrix(1 0 0 -1 1254.5 686.5)" gradientUnits="userSpaceOnUse"><stop offset="0" stop-color="#1d5ab5" stop-opacity="0"/><stop offset="1" stop-color="#1d5ab5"/></linearGradient><rect width="11" height="1" x="31" y="39.999" fill="url(#M_yKDJK7yqT2O8Xol967bk)" opacity=".85"/><linearGradient id="M_yKDJK7yqT2O8Xol967bl" x1="-1223.389" x2="-1200.611" y1="648.001" y2="648.001" gradientTransform="matrix(0 -1 -1 0 689.5 -1172.5)" gradientUnits="userSpaceOnUse"><stop offset="0" stop-color="#1d5ab5" stop-opacity="0"/><stop offset="1" stop-color="#1d5ab5"/></linearGradient><rect width="1" height="11" x="40.999" y="40" fill="url(#M_yKDJK7yqT2O8Xol967bl)" opacity=".85"/><linearGradient id="M_yKDJK7yqT2O8Xol967bm" x1="-1232.287" x2="-1205.181" y1="646" y2="646" gradientTransform="rotate(90 -273 961.5)" gradientUnits="userSpaceOnUse"><stop offset="0" stop-color="#1d5ab5" stop-opacity="0"/><stop offset="1" stop-color="#1d5ab5"/></linearGradient><rect width="1" height="21" x="42" y="2" fill="url(#M_yKDJK7yqT2O8Xol967bm)" opacity=".85"/><linearGradient id="M_yKDJK7yqT2O8Xol967bn" x1="-1232.287" x2="-1205.181" y1="646" y2="646" gradientTransform="matrix(0 1 1 0 -588.5 1234.5)" gradientUnits="userSpaceOnUse"><stop offset="0" stop-color="#1d5ab5" stop-opacity="0"/><stop offset="1" stop-color="#1d5ab5"/></linearGradient><rect width="1" height="21" x="57" y="2" fill="url(#M_yKDJK7yqT2O8Xol967bn)" opacity=".85"/><path fill="#1d5ab5" d="M36,40h-1v-1h1V40z M36,38h-1v-1h1V38z M36,36h-1v-1h1V36z M36,34h-1v-1h1V34z M36,32	h-1v-1h1V32z M36,30h-1v-1h1V30z M36,28h-1v-1h1V28z M36,26h-1v-1h1V26z" opacity=".25"/><path fill="#1d5ab5" d="M51,72h-1v-1h1V72z M51,70h-1v-1h1V70z M51,68h-1v-1h1V68z M51,66h-1v-1h1V66z M51,64	h-1v-1h1V64z M51,62h-1v-1h1V62z" opacity=".25"/><path fill="#1d5ab5" d="M58,47h-1v-1h1V47z M56,47h-1v-1h1V47z M54,47h-1v-1h1V47z M52,47h-1v-1h1V47z M50,47	h-1v-1h1V47z M48,47h-1v-1h1V47z M46,47h-1v-1h1V47z M44,47h-1v-1h1V47z" opacity=".25"/><path fill="#1d5ab5" d="M78,78H22V22h56V78z M24,76h52V24H24V76z"/><path fill="#1d5ab5" d="M56.68,39H58v-1.32L56.68,39z M53.85,39h1.41L58,36.26v-1.41L53.85,39z M51.02,39h1.42	L58,33.44v-1.42L51.02,39z M48.2,39h1.4l8.4-8.4v-1.4L48.2,39z M45.36,39h1.42L58,27.78v-1.42L45.36,39z M57.54,24l-15,15h1.41	L58,24.95V24H57.54z M54.7,24L42,36.7v1.42L56.12,24H54.7z M51.88,24L42,33.88v1.42L53.3,24H51.88z M49.05,24L42,31.05v1.41	L50.46,24H49.05z M46.22,24L42,28.22v1.42L47.64,24H46.22z M43.4,24L42,25.4v1.4l2.8-2.8H43.4z" opacity=".3"/><linearGradient id="M_yKDJK7yqT2O8Xol967bo" x1="121" x2="140.28" y1="17" y2="17" gradientTransform="matrix(2.2727 0 0 -1 -234.227 89.5)" gradientUnits="userSpaceOnUse"><stop offset="0" stop-color="#1d5ab5" stop-opacity="0"/><stop offset=".5" stop-color="#1d5ab5" stop-opacity=".6"/><stop offset="1" stop-color="#1d5ab5" stop-opacity="0"/></linearGradient><rect width="41" height="1" x="43" y="72" fill="url(#M_yKDJK7yqT2O8Xol967bo)" opacity=".4"/><linearGradient id="M_yKDJK7yqT2O8Xol967bp" x1="121" x2="140.28" y1="29" y2="29" gradientTransform="matrix(2.2727 0 0 -1 -234.227 89.5)" gradientUnits="userSpaceOnUse"><stop offset="0" stop-color="#1d5ab5" stop-opacity="0"/><stop offset=".5" stop-color="#1d5ab5" stop-opacity=".6"/><stop offset="1" stop-color="#1d5ab5" stop-opacity="0"/></linearGradient><rect width="41" height="1" x="43" y="60" fill="url(#M_yKDJK7yqT2O8Xol967bp)" opacity=".4"/><polygon fill="#1d5ab5" points="59,41 41,41 41,23 43,23 43,39 57,39 57,23 59,23"/><path fill="#1d5ab5" d="M76,88h-1v-1h1V88z M74,88h-1v-1h1V88z M72,88h-1v-1h1V88z M70,88h-1v-1h1V88z M68,88	h-1v-1h1V88z M66,88h-1v-1h1V88z M64,88h-1v-1h1V88z M62,88h-1v-1h1V88z M60,88h-1v-1h1V88z M58,88h-1v-1h1V88z M56,88h-1v-1h1V88z M54,88h-1v-1h1V88z M52,88h-1v-1h1V88z M50,88h-1v-1h1V88z M48,88h-1v-1h1V88z M46,88h-1v-1h1V88z M44,88h-1v-1h1V88z M42,88h-1v-1	h1V88z M40,88h-1v-1h1V88z M38,88h-1v-1h1V88z M36,88h-1v-1h1V88z M34,88h-1v-1h1V88z M32,88h-1v-1h1V88z M30,88h-1v-1h1V88z M28,88	h-1v-1h1V88z M26,88h-1v-1h1V88z M24,88h-1v-1h1V88z" opacity=".25"/></svg>