<svg xmlns="http://www.w3.org/2000/svg"  viewBox="0 0 100 100" width="500px" height="500px" baseProfile="basic"><path fill="#f0f5ff" d="M67,52.5l5-8.5h14.93c-3.07-5.94-9.28-10-16.43-10c-7.15,0-13.322,4.063-16.397,10H17.5	C12.806,44,9,47.806,9,52.5v0c0,4.694,3.806,8.5,8.5,8.5h36.603c3.075,5.937,9.247,10,16.397,10c7.15,0,13.36-4.06,16.43-10H72	L67,52.5z"/><path fill="#1d5ab5" d="M98,71h-1v-1h1V71z M98,69h-1v-1h1V69z M98,67h-1v-1h1V67z M98,65h-1v-1h1V65z M98,63	h-1v-1h1V63z M98,61h-1v-1h1V61z M98,59h-1v-1h1V59z M98,57h-1v-1h1V57z M98,55h-1v-1h1V55z M98,53h-1v-1h1V53z M98,51h-1v-1h1V51z M98,49h-1v-1h1V49z M98,47h-1v-1h1V47z M98,45h-1v-1h1V45z M98,43h-1v-1h1V43z M98,41h-1v-1h1V41z M98,39h-1v-1h1V39z M98,37h-1v-1	h1V37z M98,35h-1v-1h1V35z" opacity=".25"/><path fill="#1d5ab5" d="M18,47h-1v-1h1V47z M18,45h-1v-1h1V45z M18,43h-1v-1h1V43z M18,41h-1v-1h1V41z M18,39	h-1v-1h1V39z M18,37h-1v-1h1V37z" opacity=".25"/><path fill="#1d5ab5" d="M18,69h-1v-1h1V69z M18,67h-1v-1h1V67z M18,65h-1v-1h1V65z M18,63h-1v-1h1V63z M18,61	h-1v-1h1V61z M18,59h-1v-1h1V59z" opacity=".25"/><linearGradient id="YrxabV3YQqOYiaN2EghkGa" x1="-685.059" x2="-645.073" y1="-292" y2="-292" gradientTransform="rotate(90 -493 209.5)" gradientUnits="userSpaceOnUse"><stop offset="0" stop-color="#1d5ab5" stop-opacity="0"/><stop offset="1" stop-color="#1d5ab5"/></linearGradient><polygon fill="url(#YrxabV3YQqOYiaN2EghkGa)" points="8,17 8,53 9,53 9,17" opacity=".85"/><linearGradient id="YrxabV3YQqOYiaN2EghkGb" x1="89.5" x2="89.5" y1="16.066" y2="83.797" gradientUnits="userSpaceOnUse"><stop offset="0" stop-color="#1d5ab5" stop-opacity="0"/><stop offset="1" stop-color="#1d5ab5"/></linearGradient><path fill="url(#YrxabV3YQqOYiaN2EghkGb)" d="M90,17v35.5c0-2.15-0.35-4.21-1-6.14V17H90z" opacity=".85"/><linearGradient id="YrxabV3YQqOYiaN2EghkGc" x1="89.99" x2="90.009" y1="52.75" y2="52.75" gradientUnits="userSpaceOnUse"><stop offset="0" stop-color="#1d5ab5" stop-opacity="0"/><stop offset="1" stop-color="#1d5ab5"/></linearGradient><path fill="url(#YrxabV3YQqOYiaN2EghkGc)" d="M89.99,53C90,52.84,90,52.67,90,52.5V53H89.99z" opacity=".85"/><linearGradient id="YrxabV3YQqOYiaN2EghkGd" x1="-695.144" x2="-662.934" y1="-306" y2="-306" gradientTransform="rotate(180 -297.75 -136.25)" gradientUnits="userSpaceOnUse"><stop offset="0" stop-color="#1d5ab5" stop-opacity="0"/><stop offset="1" stop-color="#1d5ab5"/></linearGradient><polygon fill="url(#YrxabV3YQqOYiaN2EghkGd)" points="100,33 71,33 71,34 100,34" opacity=".85"/><linearGradient id="YrxabV3YQqOYiaN2EghkGe" x1="-692.675" x2="-663.241" y1="-306" y2="-306" gradientTransform="matrix(1 0 0 -1 736.5 -272.5)" gradientUnits="userSpaceOnUse"><stop offset="0" stop-color="#1d5ab5" stop-opacity="0"/><stop offset="1" stop-color="#1d5ab5"/></linearGradient><rect width="26.5" height="1" x="43.5" y="33" fill="url(#YrxabV3YQqOYiaN2EghkGe)" opacity=".85"/><linearGradient id="YrxabV3YQqOYiaN2EghkGf" x1="-695.144" x2="-662.934" y1="-344" y2="-344" gradientTransform="rotate(180 -297.75 -136.25)" gradientUnits="userSpaceOnUse"><stop offset="0" stop-color="#1d5ab5" stop-opacity="0"/><stop offset="1" stop-color="#1d5ab5"/></linearGradient><polygon fill="url(#YrxabV3YQqOYiaN2EghkGf)" points="100,71 71,71 71,72 100,72" opacity=".85"/><linearGradient id="YrxabV3YQqOYiaN2EghkGg" x1="-692.675" x2="-663.241" y1="-344" y2="-344" gradientTransform="matrix(1 0 0 -1 736.5 -272.5)" gradientUnits="userSpaceOnUse"><stop offset="0" stop-color="#1d5ab5" stop-opacity="0"/><stop offset="1" stop-color="#1d5ab5"/></linearGradient><rect width="26.5" height="1" x="43.5" y="71" fill="url(#YrxabV3YQqOYiaN2EghkGg)" opacity=".85"/><path fill="#1d5ab5" d="M96,53h-1v-1h1V53z M94,53h-1v-1h1V53z M92,53h-1v-1h1V53z M90,53h-1v-1h1V53z M88,53	h-1v-1h1V53z M86,53h-1v-1h1V53z M84,53h-1v-1h1V53z M82,53h-1v-1h1V53z M80,53h-1v-1h1V53z M78,53h-1v-1h1V53z M76,53h-1v-1h1V53z M74,53h-1v-1h1V53z M72,53h-1v-1h1V53z M70,53h-1v-1h1V53z M68,53h-1v-1h1V53z M66,53h-1v-1h1V53z M64,53h-1v-1h1V53z M62,53h-1v-1	h1V53z M60,53h-1v-1h1V53z M58,53h-1v-1h1V53z M56,53h-1v-1h1V53z M54,53h-1v-1h1V53z M52,53h-1v-1h1V53z M50,53h-1v-1h1V53z M48,53	h-1v-1h1V53z M46,53h-1v-1h1V53z M44,53h-1v-1h1V53z M42,53h-1v-1h1V53z M40,53h-1v-1h1V53z M38,53h-1v-1h1V53z M36,53h-1v-1h1V53z M34,53h-1v-1h1V53z M32,53h-1v-1h1V53z M30,53h-1v-1h1V53z M28,53h-1v-1h1V53z M24,53h-1v-1h1V53z" opacity=".25"/><path fill="#1d5ab5" d="M12,53h-1v-1h1V53z M10,53H9v-1h1V53z M8,53H7v-1h1V53z M6,53H5v-1h1V53z M4,53H3v-1h1	V53z M2,53H1v-1h1V53z" opacity=".25"/><path fill="#1d5ab5" d="M88,26h-1v-1h1V26z M86,26h-1v-1h1V26z M84,26h-1v-1h1V26z M82,26h-1v-1h1V26z M80,26	h-1v-1h1V26z M78,26h-1v-1h1V26z M76,26h-1v-1h1V26z M74,26h-1v-1h1V26z M72,26h-1v-1h1V26z M70,26h-1v-1h1V26z M68,26h-1v-1h1V26z M66,26h-1v-1h1V26z M64,26h-1v-1h1V26z M62,26h-1v-1h1V26z M60,26h-1v-1h1V26z M58,26h-1v-1h1V26z M56,26h-1v-1h1V26z M54,26h-1v-1	h1V26z M52,26h-1v-1h1V26z M50,26h-1v-1h1V26z M48,26h-1v-1h1V26z M46,26h-1v-1h1V26z M44,26h-1v-1h1V26z M42,26h-1v-1h1V26z M40,26	h-1v-1h1V26z M38,26h-1v-1h1V26z M36,26h-1v-1h1V26z M34,26h-1v-1h1V26z M32,26h-1v-1h1V26z M30,26h-1v-1h1V26z M28,26h-1v-1h1V26z M26,26h-1v-1h1V26z M24,26h-1v-1h1V26z M22,26h-1v-1h1V26z M20,26h-1v-1h1V26z M18,26h-1v-1h1V26z M16,26h-1v-1h1V26z M14,26h-1v-1	h1V26z M12,26h-1v-1h1V26z M10,26H9v-1h1V26z" opacity=".25"/><linearGradient id="YrxabV3YQqOYiaN2EghkGh" x1="34.826" x2="156.774" y1="52.5" y2="52.5" gradientUnits="userSpaceOnUse"><stop offset="0" stop-color="#1d5ab5" stop-opacity="0"/><stop offset="1" stop-color="#1d5ab5"/></linearGradient><path fill="url(#YrxabV3YQqOYiaN2EghkGh)" d="M70.5,72C59.748,72,51,63.252,51,52.5S59.748,33,70.5,33S90,41.748,90,52.5	S81.252,72,70.5,72z M70.5,34C60.299,34,52,42.299,52,52.5S60.299,71,70.5,71S89,62.701,89,52.5S80.701,34,70.5,34z" opacity=".85"/><linearGradient id="YrxabV3YQqOYiaN2EghkGi" x1="-673.316" x2="-656.655" y1="-316" y2="-316" gradientTransform="matrix(1 0 0 -1 736.5 -272.5)" gradientUnits="userSpaceOnUse"><stop offset="0" stop-color="#1d5ab5" stop-opacity="0"/><stop offset="1" stop-color="#1d5ab5"/></linearGradient><rect width="15" height="1" x="63" y="43" fill="url(#YrxabV3YQqOYiaN2EghkGi)" opacity=".85"/><linearGradient id="YrxabV3YQqOYiaN2EghkGj" x1="-675.316" x2="-658.655" y1="-316" y2="-316" gradientTransform="rotate(180 -288.75 -136.25)" gradientUnits="userSpaceOnUse"><stop offset="0" stop-color="#1d5ab5" stop-opacity="0"/><stop offset="1" stop-color="#1d5ab5"/></linearGradient><polygon fill="url(#YrxabV3YQqOYiaN2EghkGj)" points="98,43 83,43 83,44 98,44" opacity=".85"/><linearGradient id="YrxabV3YQqOYiaN2EghkGk" x1="-675.316" x2="-658.655" y1="-334" y2="-334" gradientTransform="rotate(180 -288.75 -136.25)" gradientUnits="userSpaceOnUse"><stop offset="0" stop-color="#1d5ab5" stop-opacity="0"/><stop offset="1" stop-color="#1d5ab5"/></linearGradient><polygon fill="url(#YrxabV3YQqOYiaN2EghkGk)" points="98,61 83,61 83,62 98,62" opacity=".85"/><linearGradient id="YrxabV3YQqOYiaN2EghkGl" x1="-692.316" x2="-675.655" y1="-315" y2="-315" gradientTransform="matrix(-1 0 0 1 -629.5 359.5)" gradientUnits="userSpaceOnUse"><stop offset="0" stop-color="#1d5ab5" stop-opacity="0"/><stop offset="1" stop-color="#1d5ab5"/></linearGradient><polygon fill="url(#YrxabV3YQqOYiaN2EghkGl)" points="63,45 48,45 48,44 63,44" opacity=".85"/><linearGradient id="YrxabV3YQqOYiaN2EghkGm" x1="-692.316" x2="-675.655" y1="-299" y2="-299" gradientTransform="matrix(-1 0 0 1 -629.5 359.5)" gradientUnits="userSpaceOnUse"><stop offset="0" stop-color="#1d5ab5" stop-opacity="0"/><stop offset="1" stop-color="#1d5ab5"/></linearGradient><polygon fill="url(#YrxabV3YQqOYiaN2EghkGm)" points="63,61 48,61 48,60 63,60" opacity=".85"/><linearGradient id="YrxabV3YQqOYiaN2EghkGn" x1="-673.316" x2="-656.655" y1="-334" y2="-334" gradientTransform="matrix(1 0 0 -1 736.5 -272.5)" gradientUnits="userSpaceOnUse"><stop offset="0" stop-color="#1d5ab5" stop-opacity="0"/><stop offset="1" stop-color="#1d5ab5"/></linearGradient><rect width="15" height="1" x="63" y="61" fill="url(#YrxabV3YQqOYiaN2EghkGn)" opacity=".85"/><path fill="#1d5ab5" d="M17.5,61v-1c4.136,0,7.5-3.364,7.5-7.5S21.636,45,17.5,45v-1c4.687,0,8.5,3.813,8.5,8.5	S22.187,61,17.5,61z" opacity=".55"/><linearGradient id="YrxabV3YQqOYiaN2EghkGo" x1="4.597" x2="44.807" y1="41.673" y2="75.413" gradientUnits="userSpaceOnUse"><stop offset="0" stop-color="#1d5ab5" stop-opacity="0"/><stop offset="1" stop-color="#1d5ab5"/></linearGradient><path fill="url(#YrxabV3YQqOYiaN2EghkGo)" d="M17.5,48c-2.481,0-4.5,2.019-4.5,4.5s2.019,4.5,4.5,4.5s4.5-2.019,4.5-4.5	S19.981,48,17.5,48z M20.781,51.319l-4.461,4.461c-0.332-0.12-0.638-0.286-0.915-0.495l4.881-4.881	C20.495,50.681,20.661,50.987,20.781,51.319z M18.65,49.21c0.334,0.117,0.644,0.279,0.924,0.486l-4.877,4.877	c-0.207-0.279-0.369-0.589-0.486-0.924L18.65,49.21z M17.444,49.006l-3.439,3.439C14.036,50.56,15.56,49.036,17.444,49.006z M17.511,55.999l3.488-3.488C20.993,54.432,19.432,55.993,17.511,55.999z" opacity=".85"/><linearGradient id="YrxabV3YQqOYiaN2EghkGp" x1="38.5" x2="38.5" y1="39.565" y2="59.298" gradientUnits="userSpaceOnUse"><stop offset="0" stop-color="#1d5ab5" stop-opacity="0"/><stop offset="1" stop-color="#1d5ab5"/></linearGradient><path fill="url(#YrxabV3YQqOYiaN2EghkGp)" d="M30,48h-1v-4h1V48z M33,44h-1v4h1V44z M36,44h-1v4h1V44z M39,44h-1v4h1V44z M42,44h-1v4h1V44z M45,44h-1v4h1V44z M48,44h-1v4h1V44z" opacity=".85"/><linearGradient id="YrxabV3YQqOYiaN2EghkGq" x1="38.5" x2="38.5" y1="39.565" y2="59.298" gradientTransform="matrix(1 0 0 -1 0 105)" gradientUnits="userSpaceOnUse"><stop offset="0" stop-color="#1d5ab5" stop-opacity="0"/><stop offset="1" stop-color="#1d5ab5"/></linearGradient><path fill="url(#YrxabV3YQqOYiaN2EghkGq)" d="M30,61h-1v-4h1V61z M33,57h-1v4h1V57z M36,57h-1v4h1V57z M39,57h-1v4h1V57z M42,57h-1v4h1V57z M45,57h-1v4h1V57z M48,57h-1v4h1V57z" opacity=".85"/><path fill="#1d5ab5" d="M70.5,72c-7.091,0-13.546-3.816-16.994-10H17.5C12.262,62,8,57.738,8,52.5s4.262-9.5,9.5-9.5h36.006	c3.448-6.184,9.903-10,16.994-10c7.323,0,13.959,4.039,17.318,10.541L88.572,45h-16l-4.412,7.5l4.412,7.5h16l-0.754,1.459	C84.459,67.961,77.823,72,70.5,72z M17.5,45c-4.136,0-7.5,3.364-7.5,7.5s3.364,7.5,7.5,7.5h37.212l0.279,0.54	C58.013,66.375,63.956,70,70.5,70c6.005,0,11.495-3.026,14.697-8h-13.77l-5.588-9.5l5.588-9.5h13.77c-3.202-4.974-8.692-8-14.697-8	c-6.544,0-12.487,3.625-15.509,9.46L54.712,45H17.5z"/></svg>