<svg xmlns="http://www.w3.org/2000/svg"  viewBox="0 0 100 100" width="50px" height="50px" baseProfile="basic"><path fill="#f0f5ff" d="M50,21c-3.749,0-12.181,0-10.861,9h3.756l0.266-1.048c0.497-1.959,2.139-3.425,4.166-3.734	C48.161,25.091,49.081,25,50,25s1.839,0.091,2.674,0.218c2.026,0.309,3.668,1.774,4.166,3.734L57.105,30h3.756	C62.181,21,53.749,21,50,21z"/><path fill="#1d5ab5" d="M61.726,31h-5.398l-0.457-1.802c-0.397-1.568-1.711-2.742-3.347-2.991	c-1.797-0.275-3.251-0.275-5.046,0c-1.637,0.249-2.95,1.423-3.348,2.991L43.673,31h-5.398l-0.125-0.854	c-0.437-2.978,0.09-5.354,1.565-7.061C42.381,20,47.337,20,50,20s7.619,0,10.285,3.085c1.476,1.707,2.002,4.083,1.565,7.061	L61.726,31z M57.884,29h2.084c0.15-1.966-0.251-3.514-1.196-4.607C56.704,22,52.343,22,50,22s-6.704,0-8.771,2.393	c-0.945,1.094-1.347,2.642-1.196,4.607h2.084l0.074-0.294c0.597-2.349,2.553-4.105,4.985-4.476c1.992-0.307,3.655-0.307,5.649,0	c2.432,0.37,4.388,2.127,4.984,4.476L57.884,29z"/><path fill="#1d5ab5" d="M12,76h-1v-1h1V76z M12,74h-1v-1h1V74z M12,72h-1v-1h1V72z M12,70h-1v-1h1V70z M12,68	h-1v-1h1V68z M12,66h-1v-1h1V66z M12,64h-1v-1h1V64z M12,62h-1v-1h1V62z M12,60h-1v-1h1V60z M12,58h-1v-1h1V58z M12,56h-1v-1h1V56z M12,54h-1v-1h1V54z M12,52h-1v-1h1V52z M12,50h-1v-1h1V50z M12,48h-1v-1h1V48z M12,46h-1v-1h1V46z M12,44h-1v-1h1V44z M12,42h-1v-1	h1V42z M12,40h-1v-1h1V40z M12,38h-1v-1h1V38z M12,36h-1v-1h1V36z M12,34h-1v-1h1V34z M12,32h-1v-1h1V32z" opacity=".25"/><path fill="#1d5ab5" d="M79,87h-1v-1h1V87z M77,87h-1v-1h1V87z M75,87h-1v-1h1V87z M73,87h-1v-1h1V87z M71,87	h-1v-1h1V87z M69,87h-1v-1h1V87z M67,87h-1v-1h1V87z M65,87h-1v-1h1V87z M63,87h-1v-1h1V87z M61,87h-1v-1h1V87z M59,87h-1v-1h1V87z M57,87h-1v-1h1V87z M55,87h-1v-1h1V87z M53,87h-1v-1h1V87z M51,87h-1v-1h1V87z M49,87h-1v-1h1V87z M47,87h-1v-1h1V87z M45,87h-1v-1	h1V87z M43,87h-1v-1h1V87z M41,87h-1v-1h1V87z M39,87h-1v-1h1V87z M37,87h-1v-1h1V87z M35,87h-1v-1h1V87z M33,87h-1v-1h1V87z M31,87	h-1v-1h1V87z M29,87h-1v-1h1V87z M27,87h-1v-1h1V87z M25,87h-1v-1h1V87z M23,87h-1v-1h1V87z" opacity=".25"/><path fill="#1d5ab5" d="M80,10h-1V9h1V10z M78,10h-1V9h1V10z M76,10h-1V9h1V10z M74,10h-1V9h1V10z M72,10h-1V9	h1V10z M70,10h-1V9h1V10z M68,10h-1V9h1V10z M66,10h-1V9h1V10z M64,10h-1V9h1V10z M62,10h-1V9h1V10z M60,10h-1V9h1V10z M58,10h-1V9	h1V10z M56,10h-1V9h1V10z M54,10h-1V9h1V10z M52,10h-1V9h1V10z M50,10h-1V9h1V10z M48,10h-1V9h1V10z M46,10h-1V9h1V10z M44,10h-1V9	h1V10z M42,10h-1V9h1V10z M40,10h-1V9h1V10z M38,10h-1V9h1V10z M36,10h-1V9h1V10z M34,10h-1V9h1V10z M32,10h-1V9h1V10z M30,10h-1V9	h1V10z M28,10h-1V9h1V10z M26,10h-1V9h1V10z M24,10h-1V9h1V10z M22,10h-1V9h1V10z" opacity=".25"/><path fill="#1d5ab5" d="M61,17h-1v-1h1V17z M59,17h-1v-1h1V17z M57,17h-1v-1h1V17z M55,17h-1v-1h1V17z M53,17	h-1v-1h1V17z M51,17h-1v-1h1V17z M49,17h-1v-1h1V17z M47,17h-1v-1h1V17z M45,17h-1v-1h1V17z M43,17h-1v-1h1V17z M41,17h-1v-1h1V17z" opacity=".25"/><linearGradient id="LraMDwS83PUugH2TYklJwa" x1="-2150.277" x2="-2121.88" y1="-1534" y2="-1534" gradientTransform="matrix(0 -1 -1 0 -1513.5 -2052.5)" gradientUnits="userSpaceOnUse"><stop offset="0" stop-color="#1d5ab5" stop-opacity="0"/><stop offset="1" stop-color="#1d5ab5"/></linearGradient><polygon fill="url(#LraMDwS83PUugH2TYklJwa)" points="20,98 20,76 21,76 21,98" opacity=".85"/><linearGradient id="LraMDwS83PUugH2TYklJwb" x1="-592.277" x2="-563.88" y1="-31" y2="-31" gradientTransform="matrix(1 0 0 -1 592.5 45.5)" gradientUnits="userSpaceOnUse"><stop offset="0" stop-color="#1d5ab5" stop-opacity="0"/><stop offset="1" stop-color="#1d5ab5"/></linearGradient><rect width="22" height="1" y="76" fill="url(#LraMDwS83PUugH2TYklJwb)" opacity=".85"/><linearGradient id="LraMDwS83PUugH2TYklJwc" x1="-2150.277" x2="-2121.88" y1="-1534" y2="-1534" gradientTransform="rotate(-90 -219.5 -1833)" gradientUnits="userSpaceOnUse"><stop offset="0" stop-color="#1d5ab5" stop-opacity="0"/><stop offset="1" stop-color="#1d5ab5"/></linearGradient><polygon fill="url(#LraMDwS83PUugH2TYklJwc)" points="80,98 80,76 79,76 79,98" opacity=".85"/><linearGradient id="LraMDwS83PUugH2TYklJwd" x1="-2160.237" x2="-2126.676" y1="-1533" y2="-1533" gradientTransform="rotate(90 -1840 326.5)" gradientUnits="userSpaceOnUse"><stop offset="0" stop-color="#1d5ab5" stop-opacity="0"/><stop offset="1" stop-color="#1d5ab5"/></linearGradient><polygon fill="url(#LraMDwS83PUugH2TYklJwd)" points="19,6 19,32 20,32 20,6" opacity=".85"/><linearGradient id="LraMDwS83PUugH2TYklJwe" x1="-2154.298" x2="-2128.482" y1="-1552" y2="-1552" gradientTransform="rotate(90 -1840 326.5)" gradientUnits="userSpaceOnUse"><stop offset="0" stop-color="#1d5ab5" stop-opacity="0"/><stop offset="1" stop-color="#1d5ab5"/></linearGradient><polygon fill="url(#LraMDwS83PUugH2TYklJwe)" points="38,11.999 38,31.999 39,31.999 39,11.999" opacity=".85"/><linearGradient id="LraMDwS83PUugH2TYklJwf" x1="-2154.298" x2="-2128.482" y1="-1575" y2="-1575" gradientTransform="rotate(90 -1840 326.5)" gradientUnits="userSpaceOnUse"><stop offset="0" stop-color="#1d5ab5" stop-opacity="0"/><stop offset="1" stop-color="#1d5ab5"/></linearGradient><polygon fill="url(#LraMDwS83PUugH2TYklJwf)" points="61,11.999 61,31.999 62,31.999 62,11.999" opacity=".85"/><linearGradient id="LraMDwS83PUugH2TYklJwg" x1="-2160.237" x2="-2126.676" y1="-1533" y2="-1533" gradientTransform="matrix(0 1 1 0 1613.5 2166.5)" gradientUnits="userSpaceOnUse"><stop offset="0" stop-color="#1d5ab5" stop-opacity="0"/><stop offset="1" stop-color="#1d5ab5"/></linearGradient><polygon fill="url(#LraMDwS83PUugH2TYklJwg)" points="81,6 81,32 80,32 80,6" opacity=".85"/><linearGradient id="LraMDwS83PUugH2TYklJwh" x1="-592.277" x2="-563.88" y1="-31" y2="-31" gradientTransform="rotate(180 -246.25 22.75)" gradientUnits="userSpaceOnUse"><stop offset="0" stop-color="#1d5ab5" stop-opacity="0"/><stop offset="1" stop-color="#1d5ab5"/></linearGradient><polygon fill="url(#LraMDwS83PUugH2TYklJwh)" points="100,76 78,76 78,77 100,77" opacity=".85"/><linearGradient id="LraMDwS83PUugH2TYklJwi" x1="-592.277" x2="-563.88" y1="16" y2="16" gradientTransform="rotate(180 -246.25 22.75)" gradientUnits="userSpaceOnUse"><stop offset="0" stop-color="#1d5ab5" stop-opacity="0"/><stop offset="1" stop-color="#1d5ab5"/></linearGradient><polygon fill="url(#LraMDwS83PUugH2TYklJwi)" points="100,29 78,29 78,30 100,30" opacity=".85"/><linearGradient id="LraMDwS83PUugH2TYklJwj" x1="-592.277" x2="-563.88" y1="16" y2="16" gradientTransform="matrix(1 0 0 -1 592.5 45.5)" gradientUnits="userSpaceOnUse"><stop offset="0" stop-color="#1d5ab5" stop-opacity="0"/><stop offset="1" stop-color="#1d5ab5"/></linearGradient><rect width="22" height="1" y="29" fill="url(#LraMDwS83PUugH2TYklJwj)" opacity=".85"/><rect width="58" height="33" x="21" y="43" fill="#f0f5ff"/><path fill="#1d5ab5" d="M80,77H20V42h60V77z M22,75h56V44H22V75z"/><rect width="26" height="51" x="37" y="34" fill="#f0f5ff" transform="rotate(90 50 59.5)"/><path fill="#769ed6" d="M76,73H24V46h52V73z M25,72h50V47H25V72z"/><rect width="1" height="2" x="49.5" y="54.5" fill="#f0f5ff"/><rect width="2" height="3" x="49" y="54" fill="#769ed6"/><path fill="#1d5ab5" d="M22,44v0.77L22.77,44H22z M24.18,44L22,46.18v1.41L25.59,44H24.18z M27.01,44l-2,2h1.42	l2-2H27.01z M22,50.43l2-2v-1.42l-2,2V50.43z M29.83,44l-2,2h1.42l2-2H29.83z M22,53.25l2-2v-1.42l-2,2V53.25z M32.67,44l-2,2h1.41	l2-2H32.67z M22,56.08l2-2v-1.41l-2,2V56.08z M35.49,44l-2,2h1.42l2-2H35.49z M22,58.91l2-2v-1.42l-2,2V58.91z M38.33,44l-2,2h1.4	l2-2H38.33z M22,61.73l2-2v-1.4l-2,2V61.73z M41.15,44l-2,2h1.42l2-2H41.15z M22,64.57l2-2v-1.42l-2,2V64.57z M43.98,44l-2,2h1.41	l2-2H43.98z M22,67.39l2-2v-1.41l-2,2V67.39z M46.81,44l-2,2h1.42l2-2H46.81z M22,70.23l2-2v-1.42l-2,2V70.23z M49.63,44l-2,2h1.42	l2-2H49.63z M22,73.05l2-2v-1.42l-2,2V73.05z M52.47,44l-2,2h1.41l2-2H52.47z M24,72.47l-2,2V75h0.88l2-2H24V72.47z M55.29,44l-2,2	h1.42l2-2H55.29z M24.29,75h1.42l2-2h-1.42L24.29,75z M58.13,44l-2,2h1.4l2-2H58.13z M27.13,75h1.4l2-2h-1.4L27.13,75z M60.95,44	l-2,2h1.42l2-2H60.95z M29.95,75h1.42l2-2h-1.42L29.95,75z M63.78,44l-2,2h1.41l2-2H63.78z M32.78,75h1.41l2-2h-1.41L32.78,75z M66.61,44l-2,2h1.41l2-2H66.61z M35.61,75h1.41l2-2h-1.41L35.61,75z M69.43,44l-2,2h1.42l2-2H69.43z M38.43,75h1.42l2-2h-1.42	L38.43,75z M72.27,44l-2,2h1.4l2-2H72.27z M41.27,75h1.4l2-2h-1.4L41.27,75z M75.09,44l-2,2h1.42l2-2H75.09z M44.09,75h1.42l2-2	h-1.42L44.09,75z M77.92,44l-2,2H76v1.33l2-2V44H77.92z M46.92,75h1.41l2-2h-1.41L46.92,75z M76,48.75v1.42l2-2v-1.42L76,48.75z M49.75,75h1.42l2-2h-1.42L49.75,75z M76,51.57v1.42l2-2v-1.42L76,51.57z M52.57,75h1.42l2-2h-1.42L52.57,75z M76,54.41v1.41l2-2	v-1.41L76,54.41z M55.41,75h1.41l2-2h-1.41L55.41,75z M76,57.23v1.42l2-2v-1.42L76,57.23z M58.23,75h1.42l2-2h-1.42L58.23,75z M76,60.07v1.4l2-2v-1.4L76,60.07z M61.07,75h1.4l2-2h-1.4L61.07,75z M76,62.89v1.42l2-2v-1.42L76,62.89z M63.89,75h1.42l2-2h-1.42	L63.89,75z M76,65.72v1.41l2-2v-1.41L76,65.72z M66.72,75h1.41l2-2h-1.41L66.72,75z M76,68.55v1.42l2-2v-1.42L76,68.55z M69.55,75	h1.42l2-2h-1.42L69.55,75z M76,71.37v1.42l2-2v-1.42L76,71.37z M72.37,75h1.42l2-2h-1.42L72.37,75z M75.21,75h1.41L78,73.62v-1.41	L75.21,75z" opacity=".3"/><path fill="#f0f5ff" d="M80,44.055c0,2.405-1.655,4.46-3.941,4.914C71.639,49.846,63.294,51,50,51	s-21.639-1.154-26.059-2.031C21.655,48.516,20,46.461,20,44.055V30h60V44.055z"/><path fill="#f0f5ff" d="M76.5,31v13.081c0,0.715-0.511,1.335-1.216,1.473C70.77,46.441,62.718,47.5,50,47.5	s-20.77-1.059-25.285-1.946c-0.704-0.138-1.215-0.758-1.215-1.473V31"/><path fill="#769ed6" d="M50,48c-12.756,0-20.843-1.063-25.382-1.956C23.681,45.861,23,45.035,23,44.081V31h1v13.081	c0,0.478,0.341,0.89,0.811,0.982C29.306,45.946,37.325,47,50,47c12.676,0,20.694-1.054,25.188-1.937	C75.658,44.971,76,44.559,76,44.081V31h1v13.081c0,0.954-0.682,1.78-1.62,1.964C70.843,46.937,62.757,48,50,48z"/><path fill="#1d5ab5" d="M21,31v0.63L21.63,31H21z M21,33.04v1.41l2-2v-1.41L21,33.04z M21,35.87v1.41l2-2v-1.41	L21,35.87z M21,38.69v1.42l2-2v-1.42L21,38.69z M21,41.53v1.4l2-2v-1.4L21,41.53z M21.01,44.34c0.02,0.41,0.11,0.8,0.25,1.17	L23,43.77v-1.42L21.01,44.34z M23.21,44.97l-1.45,1.45c0.19,0.27,0.42,0.52,0.68,0.73l1.43-1.43	C23.59,45.54,23.36,45.28,23.21,44.97z M24.92,46.09l-1.61,1.61c0.29,0.14,0.6,0.24,0.92,0.31c0.05,0.01,0.11,0.02,0.16,0.03	l1.72-1.72C25.69,46.24,25.29,46.17,24.92,46.09z M27.31,46.52l-1.74,1.74c0.38,0.06,0.79,0.13,1.22,0.2l1.75-1.75	C28.11,46.64,27.7,46.58,27.31,46.52z M29.8,46.87l-1.78,1.78c0.4,0.06,0.81,0.11,1.24,0.17l1.79-1.79	C30.62,46.98,30.2,46.93,29.8,46.87z M32.32,47.17l-1.81,1.81c0.41,0.05,0.83,0.1,1.27,0.15l1.83-1.83	C33.16,47.26,32.73,47.22,32.32,47.17z M34.91,47.42l-1.84,1.84c0.41,0.04,0.84,0.08,1.28,0.12l1.85-1.85	C35.76,47.49,35.33,47.46,34.91,47.42z M37.53,47.62l-1.87,1.87c0.43,0.03,0.88,0.06,1.33,0.09l1.88-1.88	C38.41,47.68,37.97,47.65,37.53,47.62z M40.21,47.77l-1.9,1.9c0.44,0.03,0.88,0.05,1.34,0.07l1.91-1.91	C41.1,47.81,40.65,47.79,40.21,47.77z M42.93,47.88L41,49.81c0.44,0.02,0.89,0.04,1.36,0.06l1.94-1.94	C43.83,47.91,43.38,47.9,42.93,47.88z M45.68,47.95l-1.96,1.96c0.45,0.01,0.91,0.03,1.38,0.04l1.97-1.97	C46.6,47.98,46.14,47.97,45.68,47.95z M48.48,47.99l-1.98,1.98c0.46,0.01,0.92,0.02,1.39,0.02L49.88,48	C49.41,48,48.94,48,48.48,47.99z M51.3,47.99L49.29,50h1.42l2.02-2.02C52.26,47.99,51.78,47.99,51.3,47.99z M54.17,47.96l-2.03,2.03	c0.48,0,0.95-0.01,1.42-0.02l2.04-2.04C55.13,47.94,54.66,47.95,54.17,47.96z M57.06,47.89l-2.05,2.05	c0.49-0.01,0.98-0.02,1.46-0.04l2.07-2.07C58.06,47.85,57.56,47.87,57.06,47.89z M60.02,47.76l-2.1,2.1c0.51-0.03,1-0.05,1.48-0.07	l2.11-2.11C61.02,47.71,60.53,47.74,60.02,47.76z M77,31v1.19L78.19,31H77z M77,33.61v1.41l2-2v-1.41L77,33.61z M60.9,49.71	c0.51-0.02,1.01-0.05,1.5-0.09l2.15-2.15c-0.49,0.04-1,0.07-1.52,0.11L60.9,49.71z M77,36.43v1.42l2-2v-1.42L77,36.43z M63.91,49.52	c0.53-0.04,1.04-0.08,1.54-0.12l2.23-2.23c-0.51,0.06-1.03,0.11-1.58,0.16L63.91,49.52z M77,39.27v1.4l2-2v-1.4L77,39.27z M67.02,49.25c0.55-0.05,1.07-0.11,1.57-0.16l2.3-2.31c-0.51,0.07-1.05,0.14-1.61,0.21L67.02,49.25z M77,42.09v1.42l2-2v-1.42	L77,42.09z M70.2,48.89c0.57-0.07,1.12-0.15,1.64-0.22l2.42-2.42c-0.53,0.1-1.1,0.19-1.71,0.29L70.2,48.89z M73.51,48.41	c0.61-0.1,1.18-0.2,1.71-0.3l3.77-3.77C79,44.25,79,44.17,79,44.08v-1.16L73.51,48.41z" opacity=".3"/><linearGradient id="LraMDwS83PUugH2TYklJwk" x1="-2123.348" x2="-2096.023" y1="-1559" y2="-1559" gradientTransform="matrix(0 -1 -1 0 -1513.5 -2052.5)" gradientUnits="userSpaceOnUse"><stop offset="0" stop-color="#1d5ab5" stop-opacity="0"/><stop offset="1" stop-color="#1d5ab5"/></linearGradient><polygon fill="url(#LraMDwS83PUugH2TYklJwk)" points="45,71 45,56 46,56 46,71" opacity=".85"/><linearGradient id="LraMDwS83PUugH2TYklJwl" x1="-2094.348" x2="-2067.023" y1="-1552" y2="-1552" gradientTransform="matrix(0 -1 -1 0 -1513.5 -2052.5)" gradientUnits="userSpaceOnUse"><stop offset="0" stop-color="#1d5ab5" stop-opacity="0"/><stop offset="1" stop-color="#1d5ab5"/></linearGradient><polygon fill="url(#LraMDwS83PUugH2TYklJwl)" points="38,42 38,27 39,27 39,42" opacity=".85"/><linearGradient id="LraMDwS83PUugH2TYklJwm" x1="-2094.348" x2="-2067.023" y1="-1575" y2="-1575" gradientTransform="matrix(0 -1 -1 0 -1513.5 -2052.5)" gradientUnits="userSpaceOnUse"><stop offset="0" stop-color="#1d5ab5" stop-opacity="0"/><stop offset="1" stop-color="#1d5ab5"/></linearGradient><polygon fill="url(#LraMDwS83PUugH2TYklJwm)" points="61,42 61,27 62,27 62,42" opacity=".85"/><linearGradient id="LraMDwS83PUugH2TYklJwn" x1="-2123.348" x2="-2093.275" y1="-1568" y2="-1568" gradientTransform="matrix(0 -1 -1 0 -1513.5 -2052.5)" gradientUnits="userSpaceOnUse"><stop offset="0" stop-color="#1d5ab5" stop-opacity="0"/><stop offset="1" stop-color="#1d5ab5"/></linearGradient><polygon fill="url(#LraMDwS83PUugH2TYklJwn)" points="54,71 54,56 55,56 55,71" opacity=".85"/><path fill="#f0f5ff" d="M56.5,51h-13v-4.5c0-1.657,1.343-3,3-3h7c1.657,0,3,1.343,3,3V51z"/><path fill="#769ed6" d="M57,51.5H43v-5c0-1.93,1.57-3.5,3.5-3.5h7c1.93,0,3.5,1.57,3.5,3.5V51.5z M44,50.5h12v-4	c0-1.379-1.121-2.5-2.5-2.5h-7c-1.379,0-2.5,1.121-2.5,2.5V50.5z"/><linearGradient id="LraMDwS83PUugH2TYklJwo" x1="94.657" x2="69.734" y1="43.119" y2="52.19" gradientUnits="userSpaceOnUse"><stop offset="0" stop-color="#1d5ab5" stop-opacity="0"/><stop offset="1" stop-color="#1d5ab5"/></linearGradient><path fill="url(#LraMDwS83PUugH2TYklJwo)" d="M76.153,49.969l-0.193-0.98c6.43-1.266,12.571-3.499,18.252-6.637l0.484,0.875	C88.924,46.415,82.685,48.684,76.153,49.969z" opacity=".85"/><linearGradient id="LraMDwS83PUugH2TYklJwp" x1="94.657" x2="69.734" y1="43.119" y2="52.19" gradientTransform="matrix(-1 0 0 1 100 0)" gradientUnits="userSpaceOnUse"><stop offset="0" stop-color="#1d5ab5" stop-opacity="0"/><stop offset="1" stop-color="#1d5ab5"/></linearGradient><path fill="url(#LraMDwS83PUugH2TYklJwp)" d="M23.847,49.969l0.193-0.98c-6.43-1.266-12.571-3.499-18.252-6.637l-0.484,0.875	C11.076,46.415,17.315,48.684,23.847,49.969z" opacity=".85"/><path fill="#1d5ab5" d="M50,52c-13.08,0-21.441-1.104-26.153-2.03C21.038,49.417,19,46.94,19,44.081V29h62v15.081	c0,2.859-2.038,5.336-4.847,5.889C71.441,50.896,63.08,52,50,52z M21,31v13.081c0,1.906,1.359,3.558,3.233,3.926	C28.857,48.916,37.081,50,50,50s21.143-1.084,25.767-1.993C77.641,47.639,79,45.987,79,44.081V31H21z"/><path fill="#1d5ab5" d="M50,61c-2.682,0-4.344-1.257-4.413-1.311L45,59.245V50h10v9.245l-0.594,0.449	C54.344,59.743,52.682,61,50,61z M47,58.229C47.42,58.477,48.485,59,50,59c1.516,0,2.582-0.524,3-0.771V52h-6V58.229z"/></svg>