<svg xmlns="http://www.w3.org/2000/svg"  viewBox="0 0 100 100" width="100px" height="100px" baseProfile="basic"><path fill="#f0f5ff" d="M28.5,79c-3.584,0-6.5-2.916-6.5-6.5V21h40v6h4v11h5v6h4v28.5c0,3.584-2.916,6.5-6.5,6.5H28.5z"/><path fill="#1d5ab5" d="M74,91h-1v-1h1V91z M72,91h-1v-1h1V91z M70,91h-1v-1h1V91z M68,91h-1v-1h1V91z M66,91	h-1v-1h1V91z M64,91h-1v-1h1V91z M62,91h-1v-1h1V91z M60,91h-1v-1h1V91z M58,91h-1v-1h1V91z M56,91h-1v-1h1V91z M54,91h-1v-1h1V91z M52,91h-1v-1h1V91z M50,91h-1v-1h1V91z M48,91h-1v-1h1V91z M46,91h-1v-1h1V91z M44,91h-1v-1h1V91z M42,91h-1v-1h1V91z M40,91h-1v-1	h1V91z M38,91h-1v-1h1V91z M36,91h-1v-1h1V91z M34,91h-1v-1h1V91z M32,91h-1v-1h1V91z M30,91h-1v-1h1V91z M28,91h-1v-1h1V91z M26,91	h-1v-1h1V91z M24,91h-1v-1h1V91z" opacity=".25"/><path fill="#1d5ab5" d="M55,85h-1v-1h1V85z M53,85h-1v-1h1V85z M51,85h-1v-1h1V85z M49,85h-1v-1h1V85z M47,85	h-1v-1h1V85z" opacity=".25"/><linearGradient id="GbBxpgvrtoYCTmYcUFSaBa" x1="-591.216" x2="-555.074" y1="-473" y2="-473" gradientTransform="matrix(1 0 0 -1 592.5 -393.5)" gradientUnits="userSpaceOnUse"><stop offset="0" stop-color="#1d5ab5" stop-opacity="0"/><stop offset="1" stop-color="#1d5ab5"/></linearGradient><rect width="28" height="1" x="1" y="79" fill="url(#GbBxpgvrtoYCTmYcUFSaBa)" opacity=".85"/><linearGradient id="GbBxpgvrtoYCTmYcUFSaBb" x1="-591.216" x2="-555.074" y1="-469" y2="-469" gradientTransform="matrix(0 -1 -1 0 -447.5 -491.5)" gradientUnits="userSpaceOnUse"><stop offset="0" stop-color="#1d5ab5" stop-opacity="0"/><stop offset="1" stop-color="#1d5ab5"/></linearGradient><polygon fill="url(#GbBxpgvrtoYCTmYcUFSaBb)" points="21,100 21,72 22,72 22,100" opacity=".85"/><linearGradient id="GbBxpgvrtoYCTmYcUFSaBc" x1="-591.216" x2="-555.074" y1="-523" y2="-523" gradientTransform="matrix(0 -1 -1 0 -447.5 -491.5)" gradientUnits="userSpaceOnUse"><stop offset="0" stop-color="#1d5ab5" stop-opacity="0"/><stop offset="1" stop-color="#1d5ab5"/></linearGradient><polygon fill="url(#GbBxpgvrtoYCTmYcUFSaBc)" points="75,100 75,72 76,72 76,100" opacity=".85"/><linearGradient id="GbBxpgvrtoYCTmYcUFSaBd" x1="-581.245" x2="-548.976" y1="-492" y2="-492" gradientTransform="matrix(0 -1 -1 0 -447.5 -491.5)" gradientUnits="userSpaceOnUse"><stop offset="0" stop-color="#1d5ab5" stop-opacity="0"/><stop offset="1" stop-color="#1d5ab5"/></linearGradient><polygon fill="url(#GbBxpgvrtoYCTmYcUFSaBd)" points="44,89.998 44,64.998 45,64.998 45,89.998" opacity=".85"/><linearGradient id="GbBxpgvrtoYCTmYcUFSaBe" x1="-581.245" x2="-548.976" y1="-504" y2="-504" gradientTransform="matrix(0 -1 -1 0 -447.5 -491.5)" gradientUnits="userSpaceOnUse"><stop offset="0" stop-color="#1d5ab5" stop-opacity="0"/><stop offset="1" stop-color="#1d5ab5"/></linearGradient><polygon fill="url(#GbBxpgvrtoYCTmYcUFSaBe)" points="56,89.998 56,64.998 57,64.998 57,89.998" opacity=".85"/><linearGradient id="GbBxpgvrtoYCTmYcUFSaBf" x1="-591.216" x2="-555.074" y1="-414" y2="-414" gradientTransform="matrix(1 0 0 -1 592.5 -393.5)" gradientUnits="userSpaceOnUse"><stop offset="0" stop-color="#1d5ab5" stop-opacity="0"/><stop offset="1" stop-color="#1d5ab5"/></linearGradient><rect width="28" height="1" x="1" y="20" fill="url(#GbBxpgvrtoYCTmYcUFSaBf)" opacity=".85"/><linearGradient id="GbBxpgvrtoYCTmYcUFSaBg" x1="-587.216" x2="-551.074" y1="-414" y2="-414" gradientTransform="matrix(0 1 1 0 435.5 587.5)" gradientUnits="userSpaceOnUse"><stop offset="0" stop-color="#1d5ab5" stop-opacity="0"/><stop offset="1" stop-color="#1d5ab5"/></linearGradient><polygon fill="url(#GbBxpgvrtoYCTmYcUFSaBg)" points="22,0 22,28 21,28 21,0" opacity=".85"/><linearGradient id="GbBxpgvrtoYCTmYcUFSaBh" x1="-587.216" x2="-551.074" y1="-373" y2="-373" gradientTransform="matrix(0 1 1 0 435.5 587.5)" gradientUnits="userSpaceOnUse"><stop offset="0" stop-color="#1d5ab5" stop-opacity="0"/><stop offset="1" stop-color="#1d5ab5"/></linearGradient><polygon fill="url(#GbBxpgvrtoYCTmYcUFSaBh)" points="63,0 63,28 62,28 62,0" opacity=".85"/><linearGradient id="GbBxpgvrtoYCTmYcUFSaBi" x1="-576.328" x2="-554.385" y1="-379" y2="-379" gradientTransform="matrix(0 1 1 0 435.5 587.5)" gradientUnits="userSpaceOnUse"><stop offset="0" stop-color="#1d5ab5" stop-opacity="0"/><stop offset="1" stop-color="#1d5ab5"/></linearGradient><polygon fill="url(#GbBxpgvrtoYCTmYcUFSaBi)" points="57,10.999 57,27.999 56,27.999 56,10.999" opacity=".85"/><linearGradient id="GbBxpgvrtoYCTmYcUFSaBj" x1="-576.328" x2="-554.385" y1="-408" y2="-408" gradientTransform="matrix(0 1 1 0 435.5 587.5)" gradientUnits="userSpaceOnUse"><stop offset="0" stop-color="#1d5ab5" stop-opacity="0"/><stop offset="1" stop-color="#1d5ab5"/></linearGradient><polygon fill="url(#GbBxpgvrtoYCTmYcUFSaBj)" points="28,10.999 28,27.999 27,27.999 27,10.999" opacity=".85"/><linearGradient id="GbBxpgvrtoYCTmYcUFSaBk" x1="-584.196" x2="-545.472" y1="-473" y2="-473" gradientTransform="rotate(180 -243.75 -196.75)" gradientUnits="userSpaceOnUse"><stop offset="0" stop-color="#1d5ab5" stop-opacity="0"/><stop offset="1" stop-color="#1d5ab5"/></linearGradient><polygon fill="url(#GbBxpgvrtoYCTmYcUFSaBk)" points="97,79 67,79 67,80 97,80" opacity=".85"/><linearGradient id="GbBxpgvrtoYCTmYcUFSaBl" x1="-578.297" x2="-552.482" y1="-437" y2="-437" gradientTransform="rotate(180 -243.75 -196.75)" gradientUnits="userSpaceOnUse"><stop offset="0" stop-color="#1d5ab5" stop-opacity="0"/><stop offset="1" stop-color="#1d5ab5"/></linearGradient><polygon fill="url(#GbBxpgvrtoYCTmYcUFSaBl)" points="91,43 71,43 71,44 91,44" opacity=".85"/><linearGradient id="GbBxpgvrtoYCTmYcUFSaBm" x1="-566.358" x2="-548.287" y1="-431" y2="-431" gradientTransform="rotate(180 -243.75 -196.75)" gradientUnits="userSpaceOnUse"><stop offset="0" stop-color="#1d5ab5" stop-opacity="0"/><stop offset="1" stop-color="#1d5ab5"/></linearGradient><polygon fill="url(#GbBxpgvrtoYCTmYcUFSaBm)" points="79,37 65,37 65,38 79,38" opacity=".85"/><linearGradient id="GbBxpgvrtoYCTmYcUFSaBn" x1="-565.348" x2="-545.986" y1="-420" y2="-420" gradientTransform="rotate(180 -243.75 -196.75)" gradientUnits="userSpaceOnUse"><stop offset="0" stop-color="#1d5ab5" stop-opacity="0"/><stop offset="1" stop-color="#1d5ab5"/></linearGradient><polygon fill="url(#GbBxpgvrtoYCTmYcUFSaBn)" points="78,26 63,26 63,27 78,27" opacity=".85"/><linearGradient id="GbBxpgvrtoYCTmYcUFSaBo" x1="-573.196" x2="-534.472" y1="-414" y2="-414" gradientTransform="rotate(180 -243.75 -196.75)" gradientUnits="userSpaceOnUse"><stop offset="0" stop-color="#1d5ab5" stop-opacity="0"/><stop offset="1" stop-color="#1d5ab5"/></linearGradient><polygon fill="url(#GbBxpgvrtoYCTmYcUFSaBo)" points="86,20 56,20 56,21 86,21" opacity=".85"/><path fill="#1d5ab5" d="M56,16h-1v-1h1V16z M54,16h-1v-1h1V16z M52,16h-1v-1h1V16z M50,16h-1v-1h1V16z M48,16	h-1v-1h1V16z M46,16h-1v-1h1V16z M44,16h-1v-1h1V16z M42,16h-1v-1h1V16z M40,16h-1v-1h1V16z M38,16h-1v-1h1V16z M36,16h-1v-1h1V16z M34,16h-1v-1h1V16z M32,16h-1v-1h1V16z M30,16h-1v-1h1V16z" opacity=".25"/><path fill="#1d5ab5" d="M62,10h-1V9h1V10z M60,10h-1V9h1V10z M58,10h-1V9h1V10z M56,10h-1V9h1V10z M54,10h-1V9	h1V10z M52,10h-1V9h1V10z M50,10h-1V9h1V10z M48,10h-1V9h1V10z M46,10h-1V9h1V10z M44,10h-1V9h1V10z M42,10h-1V9h1V10z M40,10h-1V9	h1V10z M38,10h-1V9h1V10z M36,10h-1V9h1V10z M34,10h-1V9h1V10z M32,10h-1V9h1V10z M30,10h-1V9h1V10z M28,10h-1V9h1V10z M26,10h-1V9	h1V10z M24,10h-1V9h1V10z" opacity=".25"/><path fill="#1d5ab5" d="M62.55,27L62,27.55v1.42L63.97,27H62.55z M65.38,27L62,30.38v1.41l4-4V27H65.38z M62,33.21v1.42l4-4v-1.42L62,33.21z M62,36.03v1.42l4-4v-1.42L62,36.03z M62,38.87v1.41l4-4v-1.41L62,38.87z M66,38v-0.31l-4,4	v1.42L67.11,38H66z M68.53,38L62,44.53v1.4L69.93,38H68.53z M62,47.35v1.42l9-9v-1.42L62,47.35z M62,50.18v1.41l9-9v-1.41L62,50.18z M71.01,44L62,53.01v1.41L72.42,44H71.01z M73.83,44L62,55.83v1.42l13-13V44H73.83z M62,58.67v1.4l13-13v-1.4L62,58.67z M62,61.49	v1.42l13-13v-1.42L62,61.49z M62,64.32v1.41l13-13v-1.41L62,64.32z M62,67.15v1.42l13-13v-1.42L62,67.15z M62,69.97v1.42l13-13	v-1.42L62,69.97z M62.01,72.8c0.021,0.42,0.08,0.83,0.18,1.23L75,61.22v-1.41L62.01,72.8z M62.54,75.09	c0.14,0.32,0.31,0.63,0.5,0.92L75,64.05v-1.42L62.54,75.09z M63.66,76.81c0.2,0.25,0.44,0.48,0.7,0.7h0.01L75,66.87v-1.4	L63.66,76.81z M65.2,78.09c0.3,0.18,0.62,0.34,0.95,0.47L75,69.71v-1.42L65.2,78.09z M67.24,78.88C67.65,78.96,68.07,79,68.5,79	h0.03L75,72.53v-1.41L67.24,78.88z M70.17,78.78c2.24-0.6,4.01-2.37,4.61-4.61L70.17,78.78z" opacity=".3"/><path fill="#1d5ab5" d="M55.83,72.5h0.67v-0.67L55.83,72.5z M53.01,72.5h1.41l2.08-2.08v-1.41L53.01,72.5z M50.18,72.5h1.41l4.91-4.91v-1.41L50.18,72.5z M47.35,72.5h1.42l7.73-7.73v-1.42L47.35,72.5z M44.53,72.5h1.4L56.5,61.93v-1.4	L44.53,72.5z M44.5,69.69v1.42l12-12v-1.42L44.5,69.69z M53.87,57.5l-9.37,9.37v1.41L55.28,57.5H53.87z M51.03,57.5l-6.53,6.53v1.42	l7.95-7.95H51.03z M48.21,57.5l-3.71,3.71v1.42l5.13-5.13H48.21z M45.38,57.5l-0.88,0.88v1.41l2.29-2.29H45.38z" opacity=".3"/><path fill="#1d5ab5" d="M13,78h-1v-1h1V78z M13,76h-1v-1h1V76z M13,74h-1v-1h1V74z M13,72h-1v-1h1V72z M13,70	h-1v-1h1V70z M13,68h-1v-1h1V68z M13,66h-1v-1h1V66z M13,64h-1v-1h1V64z M13,62h-1v-1h1V62z M13,60h-1v-1h1V60z M13,58h-1v-1h1V58z M13,56h-1v-1h1V56z M13,54h-1v-1h1V54z M13,52h-1v-1h1V52z M13,50h-1v-1h1V50z M13,48h-1v-1h1V48z M13,46h-1v-1h1V46z M13,44h-1v-1	h1V44z M13,42h-1v-1h1V42z M13,40h-1v-1h1V40z M13,38h-1v-1h1V38z M13,36h-1v-1h1V36z M13,34h-1v-1h1V34z M13,32h-1v-1h1V32z M13,30	h-1v-1h1V30z M13,28h-1v-1h1V28z M13,26h-1v-1h1V26z M13,24h-1v-1h1V24z M13,22h-1v-1h1V22z" opacity=".25"/><path fill="#1d5ab5" d="M84,78h-1v-1h1V78z M84,76h-1v-1h1V76z M84,74h-1v-1h1V74z M84,72h-1v-1h1V72z M84,70	h-1v-1h1V70z M84,68h-1v-1h1V68z M84,66h-1v-1h1V66z M84,64h-1v-1h1V64z M84,62h-1v-1h1V62z M84,60h-1v-1h1V60z M84,58h-1v-1h1V58z M84,56h-1v-1h1V56z M84,54h-1v-1h1V54z M84,52h-1v-1h1V52z M84,50h-1v-1h1V50z M84,48h-1v-1h1V48z M84,46h-1v-1h1V46z" opacity=".25"/><path fill="#1d5ab5" d="M73,36h-1v-1h1V36z M73,34h-1v-1h1V34z M73,32h-1v-1h1V32z M73,30h-1v-1h1V30z M73,28	h-1v-1h1V28z" opacity=".25"/><path fill="#1d5ab5" d="M80,42h-1v-1h1V42z M80,40h-1v-1h1V40z M80,38h-1v-1h1V38z M80,36h-1v-1h1V36z M80,34	h-1v-1h1V34z M80,32h-1v-1h1V32z M80,30h-1v-1h1V30z M80,28h-1v-1h1V28z M80,26h-1v-1h1V26z M80,24h-1v-1h1V24z M80,22h-1v-1h1V22z" opacity=".25"/><path fill="#1d5ab5" d="M68.5,80c-4.136,0-7.5-3.364-7.5-7.5h2c0,3.032,2.468,5.5,5.5,5.5s5.5-2.468,5.5-5.5V45h-3v-2h5v29.5	C76,76.636,72.636,80,68.5,80z"/><path fill="#1d5ab5" d="M68.5,80h-40c-4.136,0-7.5-3.364-7.5-7.5V20h42v52.5h-2V22H23v50.5c0,3.032,2.468,5.5,5.5,5.5h40V80z"/><path fill="#1d5ab5" d="M68.5,76c-1.93,0-3.5-1.57-3.5-3.5V28h-3v-2h5v11h5v35.5C72,74.43,70.43,76,68.5,76z M67,39v33.5	c0,0.827,0.673,1.5,1.5,1.5s1.5-0.673,1.5-1.5V39H67z"/><rect width="13" height="1" x="27" y="54" fill="#769ed6"/><rect width="13" height="1" x="27" y="57" fill="#769ed6"/><rect width="13" height="1" x="27" y="60" fill="#769ed6"/><rect width="13" height="1" x="27" y="63" fill="#769ed6"/><rect width="13" height="1" x="27" y="66" fill="#769ed6"/><rect width="13" height="1" x="27" y="69" fill="#769ed6"/><rect width="13" height="1" x="27" y="72" fill="#769ed6"/><rect width="13" height="1" x="27" y="51" fill="#769ed6"/><rect width="13" height="1" x="27" y="48" fill="#769ed6"/><rect width="13" height="1" x="27" y="45" fill="#769ed6"/><rect width="13" height="1" x="27" y="42" fill="#769ed6"/><rect width="13" height="1" x="27" y="39" fill="#769ed6"/><rect width="13" height="1" x="44" y="54" fill="#769ed6"/><rect width="13" height="1" x="44" y="51" fill="#769ed6"/><rect width="13" height="1" x="44" y="48" fill="#769ed6"/><rect width="13" height="1" x="44" y="45" fill="#769ed6"/><rect width="13" height="1" x="44" y="42" fill="#769ed6"/><rect width="13" height="1" x="44" y="39" fill="#769ed6"/><rect width="30" height="2" x="27" y="27" fill="#1d5ab5"/><rect width="24" height="2" x="30" y="32" fill="#1d5ab5"/><linearGradient id="GbBxpgvrtoYCTmYcUFSaBp" x1="-579.2" x2="-557.257" y1="-379" y2="-379" gradientTransform="matrix(0 -2.2941 1 0 435.5 -1262.185)" gradientUnits="userSpaceOnUse"><stop offset="0" stop-color="#1d5ab5" stop-opacity="0"/><stop offset="1" stop-color="#1d5ab5"/></linearGradient><polygon fill="url(#GbBxpgvrtoYCTmYcUFSaBp)" points="56.999,66.982 56.999,27.981 55.999,27.981 55.999,66.982" opacity=".85"/><linearGradient id="GbBxpgvrtoYCTmYcUFSaBq" x1="-579.2" x2="-557.257" y1="-408" y2="-408" gradientTransform="matrix(0 -2.2941 1 0 435.5 -1262.185)" gradientUnits="userSpaceOnUse"><stop offset="0" stop-color="#1d5ab5" stop-opacity="0"/><stop offset="1" stop-color="#1d5ab5"/></linearGradient><polygon fill="url(#GbBxpgvrtoYCTmYcUFSaBq)" points="27.999,66.982 27.999,27.981 26.999,27.981 26.999,66.982" opacity=".85"/><path fill="#769ed6" d="M57,73H44V57h13V73z M45,72h11V58H45V72z"/></svg>